<?xml version="1.0" encoding="UTF-8" standalone="no"?>
<!-- Created with Inkscape (http://www.inkscape.org/) -->

<svg
   xmlns:dc="http://purl.org/dc/elements/1.1/"
   xmlns:cc="http://creativecommons.org/ns#"
   xmlns:rdf="http://www.w3.org/1999/02/22-rdf-syntax-ns#"
   xmlns:svg="http://www.w3.org/2000/svg"
   xmlns="http://www.w3.org/2000/svg"
   xmlns:sodipodi="http://sodipodi.sourceforge.net/DTD/sodipodi-0.dtd"
   xmlns:inkscape="http://www.inkscape.org/namespaces/inkscape"
   width="404.18057mm"
   height="145.96243mm"
   viewBox="0 0 404.18057 145.96243"
   version="1.1"
   id="svg8"
   inkscape:version="0.92.0 r15299"
   sodipodi:docname="cotutelle.svg">
  <defs
     id="defs2">
    <clipPath
       id="clipPath885"
       clipPathUnits="userSpaceOnUse">
      <path
         id="path883"
         d="m 391.855,750.391 h 167.42 v 40.837 h -167.42 z"
         inkscape:connector-curvature="0" />
    </clipPath>
  </defs>
  <sodipodi:namedview
     id="base"
     pagecolor="#ffffff"
     bordercolor="#666666"
     borderopacity="1.0"
     inkscape:pageopacity="0.0"
     inkscape:pageshadow="2"
     inkscape:zoom="0.36346801"
     inkscape:cx="1498.3453"
     inkscape:cy="15.729202"
     inkscape:document-units="mm"
     inkscape:current-layer="layer1"
     showgrid="false"
     inkscape:snap-bbox="true"
     inkscape:bbox-paths="true"
     inkscape:bbox-nodes="true"
     inkscape:snap-bbox-edge-midpoints="true"
     inkscape:snap-bbox-midpoints="true"
     inkscape:snap-intersection-paths="true"
     inkscape:object-paths="true"
     inkscape:snap-smooth-nodes="true"
     inkscape:snap-midpoints="true"
     inkscape:snap-object-midpoints="true"
     inkscape:snap-center="true"
     inkscape:snap-text-baseline="true"
     inkscape:snap-page="true"
     inkscape:window-width="1661"
     inkscape:window-height="1027"
     inkscape:window-x="1090"
     inkscape:window-y="179"
     inkscape:window-maximized="0" />
  <metadata
     id="metadata5">
    <rdf:RDF>
      <cc:Work
         rdf:about="">
        <dc:format>image/svg+xml</dc:format>
        <dc:type
           rdf:resource="http://purl.org/dc/dcmitype/StillImage" />
        <dc:title></dc:title>
      </cc:Work>
    </rdf:RDF>
  </metadata>
  <g
     inkscape:label="Layer 1"
     inkscape:groupmode="layer"
     id="layer1"
     transform="translate(299.01157,-50.727013)">
    <g
       id="g703">
      <g
         transform="matrix(0.42333334,0,0,0.42333334,-276.76745,129.34425)"
         id="g49">
        <g
           id="#ffffffff" />
        <g
           id="#028a80ff">
          <path
             style="opacity:1;fill:#028a80"
             inkscape:connector-curvature="0"
             d="m 142.61,30.78 c 23.84,-14.22 50.78,-22.5 77.9,-27.74 -1.39,26.97 -10.22,53.45 -24.95,76.06 0.49,2.42 1.64,4.93 0.73,7.41 -1.61,2.96 -5.39,4.84 -8.56,3.07 -2.41,3.37 -5.34,6.31 -7.98,9.49 1.12,5.36 -4.04,8.64 -8.8,8.26 -2.58,2.49 -5.5,4.56 -8.23,6.87 -0.16,2.85 0.7,6.5 -2.23,8.28 -2.73,2.36 -6.27,0.61 -9.24,-0.19 -3.04,1.6 -5.93,3.47 -8.86,5.25 0.39,1.82 2.88,2.58 3.31,4.49 1.57,3.73 -1.45,8.75 -5.67,8.47 -3.04,0.47 -5.07,-2.03 -6.63,-4.22 0.06,-1.59 0.11,-3.19 0.16,-4.78 -1.31,0.56 -2.62,1.13 -3.94,1.69 -1.48,-1.95 -2.76,-4.73 -5.55,-4.93 -3.35,-0.84 -6.74,1.74 -7.36,4.99 0.03,1.49 0.36,2.94 0.61,4.4 4.1,-1.48 8.17,-3.05 12.3,-4.46 -0.34,3.13 -1.95,6.84 -5.47,7.25 -2.79,0.81 -4.81,-1.58 -7.22,-2.3 -5.76,1.01 -11.25,3.15 -16.87,4.7 -14.78,4.04 -29.68,8.2 -45.02,9.22 -11.37,0.04 -22.57,-2.47 -33.46,-5.54 -2.21,-0.68 -4.51,-1.23 -6.51,-2.44 -0.36,-2 0.02,-4.03 0.25,-6.02 9.74,4.54 19.87,8.7 30.66,9.85 10.33,1.43 21.6,-0.41 29.91,-7.05 4.65,-3.47 7.27,-8.9 9.02,-14.29 3.04,-9.72 4.55,-19.82 7.32,-29.61 3.65,-13.53 9.37,-26.63 17.94,-37.79 8.69,-11.59 20.09,-20.92 32.44,-28.39 m -25.56,55.31 c 0.76,2.67 3.71,3.44 5.96,4.41 3.21,-0.93 5.69,-3.17 6.5,-6.47 -0.91,-2.38 -1.81,-5.32 -4.67,-5.92 -4.57,-1.93 -9.81,3.43 -7.79,7.98 m 17.31,0.75 c 1.02,2.24 3.6,2.82 5.66,3.66 2.16,-0.98 4.77,-2.02 5.51,-4.53 1.43,-3.71 -1.57,-8.18 -5.53,-8.28 -4.45,-0.27 -8.24,5.27 -5.64,9.15 M 154.2,78.3 c -4.51,1.49 -5.15,8.33 -1.08,10.73 3.7,2.84 9.98,-0.38 9.56,-5.08 0.34,-4.15 -4.76,-7.58 -8.48,-5.65 m 16.22,0.33 c -3.45,1.75 -4.3,6.84 -1.47,9.52 3.21,3.47 10.19,1.66 10.59,-3.3 0.97,-4.66 -5.14,-9.2 -9.12,-6.22 m 16.49,0.27 c -3.96,2.34 -3.53,8.83 0.86,10.44 2.51,-3.18 4.93,-6.43 7.19,-9.79 -2.34,-1.6 -5.62,-2.78 -8.05,-0.65 m -66.63,16.23 c -3.52,1.52 -4.96,6.67 -1.98,9.41 2.78,4.01 9.72,2.28 10.6,-2.43 1.65,-4.71 -4.33,-9.53 -8.62,-6.98 m 16.16,0.38 c -3.23,1.84 -3.93,6.63 -1.26,9.25 2.95,3.65 9.83,2.14 10.54,-2.66 1.52,-5.14 -4.93,-9.86 -9.28,-6.59 m 16.9,-0.06 c -3.57,2.06 -3.45,6.74 -1.4,9.87 3.52,2.32 9.15,1.87 10.51,-2.68 1.97,-5.14 -4.61,-10.52 -9.11,-7.19 m 14.04,6.46 c 0.31,2.38 2.34,3.91 4.37,4.83 2.31,-3.02 5.32,-5.38 7.95,-8.1 -1.53,-1.73 -3.09,-4 -5.64,-4.1 -3.87,-0.52 -7.67,3.51 -6.68,7.37 m -46.87,9.84 c -3.53,1.48 -5.1,6.25 -2.55,9.31 2.55,3.93 9.23,3 10.71,-1.4 2.25,-4.7 -3.49,-10.14 -8.16,-7.91 m 12.88,4 c -0.15,2.95 1.16,5.76 3.7,7.33 2.71,1.06 6.22,0.32 7.84,-2.22 2.49,-3.68 -0.23,-9.81 -4.94,-9.55 -3.1,-0.4 -4.95,2.32 -6.6,4.44 m 20.39,-3.77 c -3.28,1.28 -4.78,6.81 -1.91,8.96 3.92,-1.37 7,-4.43 10.33,-6.83 -2.11,-2.27 -5.47,-3.75 -8.42,-2.13 m -19.01,18.88 c 1.95,-0.68 3.85,-1.56 5.5,-2.83 -2.28,-0.03 -4.34,0.81 -5.5,2.83 z"
             id="path11" />
          <path
             style="opacity:1;fill:#028a80"
             inkscape:connector-curvature="0"
             d="m 286.82,85.01 c 0.02,-3.83 -0.28,-7.68 0.34,-11.47 3.43,0.15 6.87,0.15 10.31,0.05 0.15,9.81 0.03,19.62 0.06,29.44 4.64,-4.93 11.78,-7.4 18.43,-5.8 7.91,1.24 14.22,7.94 15.85,15.66 1.92,8.59 -0.12,19 -7.64,24.34 -5.65,4.15 -13.42,4.99 -19.94,2.57 -3.05,-1.09 -5.16,-3.66 -7.49,-5.77 0.02,2.06 0.02,4.13 0.02,6.2 -3.14,-0.09 -6.28,-0.09 -9.41,0.1 -0.91,-3.05 -0.51,-6.25 -0.53,-9.37 0,-15.32 -0.01,-30.64 0,-45.95 m 17.58,22.43 c -4.36,2.03 -7.37,6.69 -7.18,11.55 -0.28,6.79 5.85,13.19 12.78,12.49 7.8,0.08 13.52,-8.28 11.43,-15.6 -1.4,-7.44 -10.3,-11.39 -17.03,-8.44 z"
             id="path13" />
          <path
             style="opacity:1;fill:#028a80"
             inkscape:connector-curvature="0"
             d="m 211.49,77.74 c 3.73,-1.36 9.29,0.72 9.37,5.19 1.24,5.7 -6.49,9.31 -10.71,6.03 -4.34,-2.46 -3.3,-9.73 1.34,-11.22 z"
             id="path15" />
          <path
             style="opacity:1;fill:#028a80"
             inkscape:connector-curvature="0"
             d="m 241.6,103.69 c 7.03,-9.06 21.88,-8.99 29.59,-0.88 5.38,5.45 6.87,13.77 5.52,21.11 -1.23,8 -7.52,15.29 -15.64,16.74 -6.72,1.53 -14.07,-0.52 -18.75,-5.66 -0.12,7.96 -0.13,15.92 0,23.88 -3.55,-0.03 -7.22,0.59 -10.7,-0.2 -0.13,-20.27 -0.22,-40.56 0.05,-60.83 3.32,0.07 6.65,0.05 9.97,-0.04 -0.01,1.96 -0.02,3.92 -0.04,5.88 m 6.94,4.03 c -4.98,2.53 -7.68,8.64 -6.39,14.04 1.24,7.33 10.03,11.94 16.78,8.8 6.4,-2.33 9.22,-10.47 6.54,-16.53 -2.25,-6.69 -10.86,-9.39 -16.93,-6.31 z"
             id="path17" />
          <path
             style="opacity:1;fill:#028a80"
             inkscape:connector-curvature="0"
             d="m 186.4,140.29 c -0.4,-14.17 -0.35,-28.38 -0.04,-42.55 3.39,0.19 6.78,0.16 10.17,-0.04 0.29,14.19 0.26,28.4 0.01,42.59 -3.38,-0.13 -6.76,-0.14 -10.14,0 z"
             id="path19" />
          <path
             style="opacity:1;fill:#028a80"
             inkscape:connector-curvature="0"
             d="m 208.7,97.86 c 3.59,0.05 7.18,0.02 10.77,-0.05 -0.04,16.05 0.03,32.11 -0.03,48.17 -0.2,4.6 -1.27,10.12 -5.42,12.79 -4.81,0.56 -9.68,0.18 -14.5,0.11 0.2,-2.54 0.43,-5.08 0.67,-7.61 2.36,-0.01 5.12,0.73 7.01,-1.14 1.74,-1.92 1.46,-4.73 1.6,-7.12 -0.05,-15.05 0.14,-30.1 -0.1,-45.15 z"
             id="path21" />
          <path
             style="opacity:1;fill:#028a80"
             inkscape:connector-curvature="0"
             d="m 172.23,111.23 c 3.98,-0.93 8.23,2.68 7.51,6.82 -0.1,4.91 -6.5,7.34 -10.19,4.5 -4.24,-2.93 -2.71,-10.84 2.68,-11.32 z"
             id="path23" />
          <path
             style="opacity:1;fill:#028a80"
             inkscape:connector-curvature="0"
             d="m 150.99,131.03 c 1.86,-3.35 6.88,-4.29 9.69,-1.62 3.27,2.5 2.88,8.56 -0.96,10.33 -2.4,1.69 -5.26,0.39 -7.66,-0.54 -1.45,-2.4 -2.73,-5.54 -1.07,-8.17 z"
             id="path25" />
          <path
             style="opacity:1;fill:#028a80"
             inkscape:connector-curvature="0"
             d="m 169.41,129.35 c 3.32,-3.32 9.67,-0.9 10.23,3.65 0.64,3.21 -1.47,6.91 -4.84,7.41 -2.08,0.45 -4.05,-0.51 -5.97,-1.19 -1.84,-2.97 -2.76,-7.57 0.58,-9.87 z"
             id="path27" />
        </g>
      </g>
      <g
         transform="matrix(0.52916665,0,0,0.52916666,-299.01157,50.727013)"
         id="g354">
        <g
           id="#ffffffff-6">
          <path
             style="opacity:1;fill:#ffffff"
             inkscape:connector-curvature="0"
             d="M 0,0 H 362 V 151 H 0 V 0 m 86.09,5.04 c -3.1,1.09 -4.5,4.88 -4.23,7.95 1.83,11.58 1.01,23.39 0.05,35.01 2.38,14.37 -1.58,28.69 0.4,43.09 3.07,13.41 1.34,27.28 1.64,40.92 0.4,2.66 -0.98,4.9 -2.06,7.2 0.43,0.15 1.29,0.45 1.72,0.6 0.33,1.06 0.67,2.11 1.02,3.17 l 0.56,-0.56 c 54.86,0.29 109.74,0.18 164.61,0.11 -0.04,-0.28 -0.13,-0.85 -0.18,-1.13 0.17,-0.57 0.5,-1.7 0.66,-2.27 -0.17,-26.64 0.09,-53.29 -0.14,-79.92 0.19,-5.97 0.32,-11.98 -0.43,-17.92 1.56,-10.74 0.5,-21.78 0.41,-32.63 l -0.76,0.19 C 248.83,6.94 246.44,7.89 245.04,7.58 233.93,7.67 222.83,7.73 211.73,7.47 224.1,5.87 236.68,7.56 249.11,6.6 227.93,5.08 206.35,6.28 185.03,5.64 167.76,3.75 150.25,6.11 133.01,4.06 117.46,6.06 101.7,4.27 86.09,5.04 M 5.44,38.27 c -0.33,5.7 -0.3,11.45 0.09,17.16 3.69,0.01 7.37,-0.03 11.06,0.08 0.03,-0.55 0.09,-1.65 0.12,-2.21 C 14,53.23 11.3,53.2 8.59,53.22 8.32,51.35 8.24,49.46 8.64,47.61 c 2.42,0.03 4.85,0.04 7.27,0.04 C 15.83,47.1 15.68,46.01 15.6,45.46 13.14,45.45 10.66,45.44 8.23,44.98 8.3,43.45 8.35,41.92 8.39,40.39 11.25,40.2 14.11,40.03 16.95,39.67 15.24,36.07 8.59,37.62 5.44,38.27 M 56.74,40 c 0.1,5.23 -0.52,10.57 0.8,15.7 0.43,-0.11 1.29,-0.32 1.72,-0.43 0.64,-5.6 0.23,-11.3 0.18,-16.93 -1.25,-1.72 -3.07,-0.02 -2.7,1.66 M 21.57,50.04 c 0.04,5.33 6.01,6.22 10.15,5.53 0.05,-0.55 0.13,-1.64 0.18,-2.19 -2.11,-0.19 -4.41,0.12 -6.3,-1.01 -2.49,-2.16 -0.71,-6.27 2.35,-6.69 1.25,0.36 2.5,0.7 3.76,1.04 0.03,-0.66 0.07,-1.97 0.1,-2.63 -4.32,-2.09 -11,0.35 -10.24,5.95 m 20.82,-6.47 c -3.82,0.5 -6.19,4.46 -4.91,8.09 2.21,6.24 13.23,5.07 13.88,-1.66 0.44,-4.63 -4.88,-7.52 -8.97,-6.43 m 23.28,4.12 c -2.87,6.78 10.19,11.78 11.44,4.74 -3.18,1.13 -7.02,1.76 -9.15,-1.55 3.12,-1.13 6.56,-0.54 9.78,-1.24 0.13,-6.98 -10.01,-8.39 -12.07,-1.95 m 191.92,53.33 c 0.45,4.9 7.05,4.88 8.94,8.91 -1.89,3.21 -5.77,1.63 -8.36,0.3 -1.48,5.97 11.25,5.75 10.61,-0.25 0.74,-5.33 -6.14,-5.55 -8.65,-8.98 1.8,-3.59 5.4,-1.58 8.32,-1.44 -0.12,-5.18 -11.31,-4.17 -10.86,1.46 m 88.03,-4.36 c -0.29,5.67 -0.17,11.36 -0.09,17.03 1.26,1.77 3.29,0.2 2.86,-1.63 -0.2,-5.26 0.57,-10.62 -0.51,-15.81 -0.56,0.1 -1.69,0.31 -2.26,0.41 m -55.45,0.07 c 0.22,5.95 -0.29,11.91 0.29,17.84 0.51,-0.02 1.53,-0.06 2.04,-0.08 0.16,-3.15 0.1,-6.33 0.59,-9.45 1.41,-0.21 2.9,-1 4.33,-0.47 2.73,2.73 -0.69,7.68 2.57,10.13 4.02,-5.14 0.57,-15.37 -7.18,-11.95 -0.38,-2.14 1.18,-7.25 -2.64,-6.02 m -16.15,10.25 c -2.38,6.02 7.99,10.57 10.96,5.49 -3.18,-0.31 -7.05,0 -8.63,-3.42 0.45,-4.72 4.86,-4.27 8.28,-4.99 -2.91,-3.4 -9.92,-1.73 -10.61,2.92 m 33.74,5.29 c 4.76,4.63 15.09,1.66 12.82,-5.97 -3.09,-8.21 -18.46,-2.62 -12.82,5.97 m 22.59,-9.76 c -3.42,1.01 -5.43,5.08 -4.15,8.44 2.7,6.03 14.31,4.18 13.53,-2.92 0.32,-4.71 -5.6,-6.52 -9.38,-5.52 z"
             id="path51" />
          <path
             style="opacity:1;fill:#ffffff"
             inkscape:connector-curvature="0"
             d="m 94.48,38.36 c 6.81,-1.03 18.07,-0.82 17.85,8.64 -0.94,8.73 -10.94,9.03 -17.67,8.26 -0.25,-5.63 -0.01,-11.27 -0.18,-16.9 m 2.19,0.42 c -1.65,4.97 -1.16,10.31 -0.33,15.38 5.71,1.69 15,-0.88 14.28,-8.16 -0.21,-6.77 -8.69,-7.88 -13.95,-7.22 z"
             id="path53" />
          <path
             style="opacity:1;fill:#ffffff"
             inkscape:connector-curvature="0"
             d="m 211.46,38.31 c 0.27,-0.01 0.8,-0.02 1.06,-0.03 -0.01,4.17 0.02,8.34 0,12.51 -0.06,1.58 -0.13,3.16 -0.22,4.74 -1.77,-5.54 -0.37,-11.51 -0.84,-17.22 z"
             id="path55" />
          <path
             style="opacity:1;fill:#ffffff"
             inkscape:connector-curvature="0"
             d="m 153.73,39.96 c 0.44,1.26 0.84,2.54 1.23,3.83 1,-0.07 1.99,-0.13 2.99,-0.17 -0.65,1.18 -2.22,0.77 -3.28,1.11 0.05,3.25 -1.03,7 1.08,9.82 0.73,0.01 2.18,0.03 2.91,0.04 0.01,0.24 0.03,0.72 0.04,0.96 -1.67,-0.09 -3.34,-0.18 -5,-0.28 -0.36,-3.51 -0.26,-7.04 -0.29,-10.56 -0.86,-0.02 -2.58,-0.07 -3.45,-0.1 1.05,-0.23 2.11,-0.44 3.16,-0.66 0.2,-1.33 0.4,-2.66 0.61,-3.99 z"
             id="path57" />
          <path
             style="opacity:1;fill:#ffffff"
             inkscape:connector-curvature="0"
             d="m 121.54,43.67 c 3.41,-0.39 7.47,0.02 9.08,3.57 2.19,3.09 -0.83,6.18 -3.02,8.18 -3.04,0.15 -6.69,0.68 -8.56,-2.36 -2.88,-3.16 -0.32,-7.28 2.5,-9.39 m 1.51,0.97 c -3.22,1.16 -5.56,6.2 -2.16,8.48 2.15,2.78 6.57,1.4 8.36,-1.13 1.97,-3.73 -2.29,-8.63 -6.2,-7.35 z"
             id="path59" />
          <path
             style="opacity:1;fill:#ffffff"
             inkscape:connector-curvature="0"
             d="m 136.69,52.43 c -2.06,-6.26 4.49,-10.88 10.08,-8.26 -1.64,2.04 -4.78,0.7 -7.03,1.15 -4.42,5.05 0.95,11.24 6.84,9.3 0,0.19 0,0.57 0,0.76 -2.35,0.05 -4.7,0.04 -7.04,-0.04 -0.94,-0.99 -1.89,-1.96 -2.85,-2.91 z"
             id="path61" />
          <path
             style="opacity:1;fill:#ffffff"
             inkscape:connector-curvature="0"
             d="m 167.61,43.81 c 3.87,-1.23 9.71,1.47 8.88,6.15 0.08,7.28 -13.37,7.47 -13.07,-0.01 -0.57,-2.94 1.7,-5.1 4.19,-6.14 m 0.54,1.02 c -2.87,1.08 -4.93,4.93 -2.65,7.54 2.35,3.86 9.88,2.37 9.3,-2.56 0.64,-3.39 -3.68,-6.32 -6.65,-4.98 z"
             id="path63" />
          <path
             style="opacity:1;fill:#ffffff"
             inkscape:connector-curvature="0"
             d="m 182.56,44.87 c 3.07,-0.02 7.15,-2.75 9.41,0.39 -2.15,0.04 -4.3,-0.01 -6.44,-0.09 -2.15,3.18 -2.26,7 -2.13,10.7 l -0.66,0.04 c -0.26,-3.67 -0.25,-7.36 -0.18,-11.04 z"
             id="path65" />
          <path
             style="opacity:1;fill:#ffffff"
             inkscape:connector-curvature="0"
             d="m 196.87,43.74 c 2.16,-0.04 4.32,-0.04 6.48,-0.01 0.53,3.94 -0.62,8.45 2.34,11.66 -3.1,-0.1 -6.26,-0.3 -9.3,0.5 -0.84,-1.89 -1.11,-3.91 -0.74,-5.94 2.32,-0.49 4.65,-0.98 6.9,-1.73 0.92,-4.11 -3.94,-4.39 -6.47,-2.73 0.2,-0.44 0.59,-1.31 0.79,-1.75 m 0.4,6.8 c -0.41,1.27 -0.67,2.56 -0.78,3.88 1.99,0.15 3.99,0.2 5.99,0.18 0.08,-1.77 0.15,-3.53 0.21,-5.3 -1.88,0.05 -3.65,0.71 -5.42,1.24 z"
             id="path67" />
          <path
             style="opacity:1;fill:#ffffff"
             inkscape:connector-curvature="0"
             d="m 218.48,47.23 c 2.69,-3.71 6.98,-3.99 11,-2.53 0.32,1.5 0.65,3.01 0.98,4.52 -3.45,0.02 -6.91,0.04 -10.35,0.16 0.21,1.97 1.22,3.77 3.02,4.7 2.2,1.7 5.48,-1.86 7.23,0.78 -3.19,0.9 -6.6,0.91 -9.72,-0.25 -1.31,-2.26 -2.29,-4.71 -2.16,-7.38 m 3.56,-2.05 c -0.43,1.09 -0.87,2.18 -1.31,3.27 2.67,0.12 5.34,0.15 8.01,0.1 0.56,-3.82 -4.12,-4.22 -6.7,-3.37 z"
             id="path69" />
          <path
             style="opacity:1;fill:#ffffff"
             inkscape:connector-curvature="0"
             d="m 95.69,73.39 c 2.77,-3.68 3.15,-10.3 8.52,-11.01 3.6,7.61 7.39,15.14 11.15,22.67 0.84,1.74 1.64,3.5 2.42,5.26 -5.16,1.52 -6.46,-4.4 -8.43,-7.81 -4.37,-0.23 -8.75,-0.21 -13.13,-0.1 -1.41,2.68 -2.8,5.38 -4.19,8.08 -1.33,-0.11 -2.66,-0.22 -3.99,-0.34 2.1,-5.78 5.43,-11.01 7.65,-16.75 m 6.47,-3.62 c -1.57,2.74 -2.93,5.6 -3.96,8.59 2.84,0.42 5.72,0.29 8.59,0.22 -0.57,-3.27 -2.11,-6.61 -4.63,-8.81 z"
             id="path71" />
          <path
             style="opacity:1;fill:#ffffff"
             inkscape:connector-curvature="0"
             d="m 134.16,62.99 c 5.54,-0.71 11.28,-0.28 16.42,2.04 3.03,3.73 1.75,8.4 -2.17,10.8 5.61,1.29 8.27,7.29 4.96,12.14 -5.95,3.58 -13.04,2.33 -19.62,2.34 0.2,-9.11 0.12,-18.23 0.41,-27.32 m 4.27,3.44 c -0.08,2.71 -0.23,5.44 0.17,8.14 3.46,0.18 9.52,0.36 9.1,-4.61 -0.19,-4.61 -6.09,-3.47 -9.27,-3.53 m -0.01,11.92 c -0.02,2.75 -0.03,5.5 -0.01,8.26 4.53,0.12 12.56,1.39 12.3,-5.42 -3.03,-3.81 -8.03,-2.77 -12.29,-2.84 z"
             id="path73" />
          <path
             style="opacity:1;fill:#ffffff"
             inkscape:connector-curvature="0"
             d="m 172.8,90.63 c -1.83,-9.12 -1.7,-19.08 -0.02,-28.26 1.37,0.15 2.64,0.56 3.83,1.25 -0.28,8.55 -0.2,17.11 -0.1,25.67 -1.12,0.78 -2.35,1.23 -3.71,1.34 z"
             id="path75" />
          <path
             style="opacity:1;fill:#ffffff"
             inkscape:connector-curvature="0"
             d="m 195.79,62.76 c 5.88,-0.03 11.76,0.01 17.65,-0.06 -0.15,6.7 -8.84,2.59 -13.11,3.71 -0.05,2.71 -0.04,5.43 0.05,8.14 4.05,0.09 8.1,0.13 12.16,0.1 -0.01,0.9 -0.02,2.71 -0.03,3.61 -4.04,-0.01 -8.09,0.04 -12.13,0.14 -0.07,2.77 -0.1,5.53 -0.09,8.29 3.93,0.08 7.88,-0.21 11.8,0.11 2.27,-0.37 2.08,4 0.05,3.49 -5.15,0.36 -10.32,-0.11 -15.47,0.18 -1.99,-8.99 -0.33,-18.51 -0.88,-27.71 z"
             id="path77" />
          <path
             style="opacity:1;fill:#ffffff"
             inkscape:connector-curvature="0"
             d="m 229.42,70.58 c -1.59,-8.97 16.19,-11.79 16.34,-2.65 -4.15,-1.41 -11.32,-3.92 -12.76,2.14 3.7,4 9.16,5.48 13.24,9.03 0.17,2.95 1.22,6.58 -1.23,8.92 -3.98,3.96 -10.21,2.64 -14.92,0.88 -0.53,-1.81 -0.59,-3.72 -0.69,-5.59 3.24,3.31 10.05,5.55 13.22,1.2 -0.37,-7.35 -12.09,-6.63 -13.2,-13.93 z"
             id="path79" />
          <path
             style="opacity:1;fill:#ffffff"
             inkscape:connector-curvature="0"
             d="m 122.59,96.64 c 5.09,-0.36 10.21,-0.05 15,1.82 3.13,3.57 3.64,8.87 0.54,12.63 -4.04,4.19 -10.27,3.16 -15.52,3.19 -0.13,-4.46 -0.15,-8.91 -0.09,-13.36 0.01,-1.43 0.04,-2.86 0.07,-4.28 m 1.62,1.59 c -0.86,4.36 -1.08,10.07 0.12,14.46 5.14,2.39 15.02,-0.59 14.2,-7.72 0.05,-6.79 -9.31,-8.82 -14.32,-6.74 z"
             id="path81" />
          <path
             style="opacity:1;fill:#ffffff"
             inkscape:connector-curvature="0"
             d="m 239.39,97.19 c 0.31,0 0.91,0.01 1.21,0.01 -0.06,5.46 -0.16,10.92 0,16.38 -0.31,0.03 -0.92,0.09 -1.23,0.13 0.19,-5.51 0.08,-11.02 0.02,-16.52 z"
             id="path83" />
          <path
             style="opacity:1;fill:#ffffff"
             inkscape:connector-curvature="0"
             d="m 180.23,102.22 c 0.66,-0.92 1.28,-1.87 1.89,-2.83 0.33,1.07 0.75,2.11 1.28,3.11 0.76,0.14 2.29,0.44 3.05,0.58 -1.3,0.2 -2.6,0.4 -3.9,0.59 -0.05,2.89 -0.09,5.78 -0.14,8.67 1.31,0.4 2.63,0.81 3.95,1.22 0.01,0.25 0.03,0.75 0.04,1 -1.58,-0.12 -3.15,-0.22 -4.72,-0.32 -0.25,-3.49 -0.29,-7 -0.28,-10.5 -0.84,-0.12 -2.52,-0.35 -3.36,-0.47 0.73,-0.35 1.46,-0.69 2.19,-1.05 z"
             id="path85" />
          <path
             style="opacity:1;fill:#ffffff"
             inkscape:connector-curvature="0"
             d="m 146.29,110.83 c -1.97,-3.28 0.89,-6.7 3.69,-8.27 1.18,-0.09 2.37,-0.16 3.55,-0.2 3.02,0.81 6.06,3.11 5.21,6.65 0.06,6.41 -10.1,7.24 -12.45,1.82 m 2.79,1.26 c 3.09,3.06 9.21,0.17 8.48,-4.21 -0.4,-3.27 -3.89,-4.72 -6.84,-4.48 -3.16,1.61 -5,6.3 -1.64,8.69 z"
             id="path87" />
          <path
             style="opacity:1;fill:#ffffff"
             inkscape:connector-curvature="0"
             d="m 168.17,102.53 c 1.72,-0.01 3.44,-0.04 5.17,-0.09 0.08,0.26 0.25,0.79 0.34,1.06 -3.1,-0.06 -8.12,0.29 -7.52,4.63 -0.85,5.17 5.39,5.52 9.01,5.6 -3.75,1.29 -7.93,0.73 -10.64,-2.35 -0.38,-3.44 0.37,-7.05 3.64,-8.85 z"
             id="path89" />
          <path
             style="opacity:1;fill:#ffffff"
             inkscape:connector-curvature="0"
             d="m 191.18,111 c -2.49,-7.9 9.64,-12.22 12.8,-4.96 2.67,5.08 -3.32,8.93 -7.86,8.62 -1.74,-1.09 -3.39,-2.31 -4.94,-3.66 m 7.83,2.28 c 6.86,-1.7 3.41,-11.89 -3.18,-9.88 -5.75,2.73 -3.24,11.43 3.18,9.88 z"
             id="path91" />
          <path
             style="opacity:1;fill:#ffffff"
             inkscape:connector-curvature="0"
             d="m 210.47,102.32 c 0.78,0.53 1.58,1.06 2.38,1.59 1.71,-0.89 3.54,-1.59 5.5,-1.41 0.11,0.55 0.32,1.65 0.42,2.2 -6.09,-3.89 -8.22,4.49 -7.22,9.05 -0.26,0 -0.78,-0.02 -1.04,-0.03 -0.01,-3.8 -0.04,-7.6 -0.04,-11.4 z"
             id="path93" />
          <path
             style="opacity:1;fill:#ffffff"
             inkscape:connector-curvature="0"
             d="m 223.54,104.36 c 1.83,-2.55 5.06,-1.73 7.75,-1.66 0.39,3.15 0.5,6.33 0.59,9.51 0.7,0.5 1.42,1 2.1,1.54 -3.47,0.65 -6.99,0.53 -10.49,0.35 -0.04,-1.61 -0.06,-3.21 -0.09,-4.82 2.85,-1.7 9.99,-1.45 5.98,-6.14 -1.95,0.41 -3.89,0.83 -5.84,1.22 m 1.06,8.92 c 2.13,0.42 4.27,0.44 6,-1.07 0.01,-0.98 0.03,-2.94 0.03,-3.91 -3.11,-0.64 -7.33,1.15 -6.03,4.98 z"
             id="path95" />
        </g>
        <g
           id="#f0ffeaff">
          <path
             style="opacity:1;fill:#f0ffea"
             inkscape:connector-curvature="0"
             d="m 86.09,5.04 c 15.61,-0.77 31.37,1.02 46.92,-0.98 17.24,2.05 34.75,-0.31 52.02,1.58 21.32,0.64 42.9,-0.56 64.08,0.96 -12.43,0.96 -25.01,-0.73 -37.38,0.87 -1.68,0.16 -3.36,0.31 -5.04,0.41 C 200.02,7.46 193.33,7.53 186.66,7.82 169.64,7.55 152.6,7.58 135.57,7.72 133.52,7.66 131.48,7.7 129.43,7.73 115.24,7.65 101.04,7.52 86.84,7.77 86.5,7.92 85.82,8.23 85.47,8.39 85.26,53.06 85.52,97.75 85.19,142.42 l -0.56,0.56 c -0.35,-1.06 -0.69,-2.11 -1.02,-3.17 -0.43,-0.15 -1.29,-0.45 -1.72,-0.6 1.08,-2.3 2.46,-4.54 2.06,-7.2 C 83.65,118.37 85.38,104.5 82.31,91.09 80.33,76.69 84.29,62.37 81.91,48 82.87,36.38 83.69,24.57 81.86,12.99 81.59,9.92 82.99,6.13 86.09,5.04 Z"
             id="path98" />
        </g>
        <g
           id="#2d422aff">
          <path
             style="opacity:1;fill:#2d422a"
             inkscape:connector-curvature="0"
             d="m 85.47,8.39 c 0.35,-0.16 1.03,-0.47 1.37,-0.62 -1.38,9.73 -0.93,19.59 -1.16,29.38 -0.17,10.38 0.11,20.76 0.09,31.14 -0.41,9.07 0.13,18.15 0.62,27.21 5.36,-0.85 10.26,2.31 15.61,1.66 6.87,-0.19 15.21,-1.85 20.52,3.76 -0.06,4.45 -0.04,8.9 0.09,13.36 5.25,-0.03 11.48,1 15.52,-3.19 3.1,-3.76 2.59,-9.06 -0.54,-12.63 1.02,0.25 2.05,0.45 3.08,0.66 3.25,-3.76 7.36,0.57 11.25,0.64 -0.64,0.94 -1.28,1.88 -1.94,2.8 -2.8,1.57 -5.66,4.99 -3.69,8.27 2.35,5.42 12.51,4.59 12.45,-1.82 0.85,-3.54 -2.19,-5.84 -5.21,-6.65 2.94,-7 10.64,2.43 14.97,-3.5 -0.11,1.22 -0.22,2.45 -0.33,3.67 -3.27,1.8 -4.02,5.41 -3.64,8.85 2.71,3.08 6.89,3.64 10.64,2.35 -3.62,-0.08 -9.86,-0.43 -9.01,-5.6 -0.6,-4.34 4.42,-4.69 7.52,-4.63 -0.09,-0.27 -0.26,-0.8 -0.34,-1.06 -0.32,-1 -0.64,-1.99 -0.95,-2.98 1.77,-0.27 3.55,-0.52 5.33,-0.75 0.84,1.17 1.67,2.34 2.51,3.51 -0.73,0.36 -1.46,0.7 -2.19,1.05 0.84,0.12 2.52,0.35 3.36,0.47 -0.01,3.5 0.03,7.01 0.28,10.5 -6.02,3.49 -13.01,1.56 -19.32,3.99 -6.6,2.1 -13.56,1.72 -20.38,1.78 -8.14,0.07 -15.87,3.3 -24.04,3.04 -4.14,-0.21 -6.76,4.15 -10.91,4 -5.52,0.8 -11.01,-3.47 -16.31,-1.34 -3.03,3.63 -6.14,11.52 -0.61,14.14 26.95,0.41 53.96,0.22 80.92,0.06 8.97,-1.89 17.94,0.48 26.97,0.1 17.08,-0.63 34.34,1.34 51.29,-0.95 0.08,0.58 0.25,1.75 0.33,2.34 0.05,0.28 0.14,0.85 0.18,1.13 -54.87,0.07 -109.75,0.18 -164.61,-0.11 0.33,-44.67 0.07,-89.36 0.28,-134.03 z"
             id="path101" />
        </g>
        <g
           id="#467f2dff">
          <path
             style="opacity:1;fill:#467f2d"
             inkscape:connector-curvature="0"
             d="m 86.84,7.77 c 14.2,-0.25 28.4,-0.12 42.59,-0.04 8.22,5 19.2,5.7 27.36,11.45 2.02,3.03 3.93,6.26 7.25,8.07 -2.7,1.89 -5.87,2.56 -9.1,1.84 -3.4,-1 -4.81,3.41 -8.08,3.31 -3.76,0.27 -6.5,4.16 -10.42,3.12 -5.85,-0.79 -12.17,-1.55 -17.62,1.28 -5.35,2.87 -11.04,-0.88 -16.4,-1.92 0.35,0.66 0.7,1.32 1.06,1.98 -4.17,-0.65 -9,-1.99 -12.61,0.97 -1.67,1.84 -3.61,0.51 -5.19,-0.68 0.23,-9.79 -0.22,-19.65 1.16,-29.38 z"
             id="path104" />
        </g>
        <g
           id="#54892dff">
          <path
             style="opacity:1;fill:#54892d"
             inkscape:connector-curvature="0"
             d="m 129.43,7.73 c 2.05,-0.03 4.09,-0.07 6.14,-0.01 7.07,2.76 14.89,1.62 22.2,3.4 10.82,5.72 20.56,14.85 33.25,15.78 3.86,0.28 7.73,-1.64 11.54,-0.36 10.21,3.39 21.17,3.33 31.51,6.24 4.98,1.5 10.21,0.66 15.1,-0.75 -0.02,1.58 -0.05,3.16 -0.06,4.74 -3.1,8.74 -12.63,6.26 -19.63,7.93 -4.02,-1.46 -8.31,-1.18 -11,2.53 -1.53,1.88 -3.6,3.09 -5.96,3.56 0.02,-4.17 -0.01,-8.34 0,-12.51 -0.26,0.01 -0.79,0.02 -1.06,0.03 0.47,5.71 -0.93,11.68 0.84,17.22 l 0.13,0.46 c -0.53,-0.07 -1.57,-0.21 -2.1,-0.28 -0.26,-1.54 -0.51,-3.09 -0.76,-4.63 -1.02,1.45 -2.03,2.9 -3.14,4.28 l -0.74,0.03 c -2.96,-3.21 -1.81,-7.72 -2.34,-11.66 -2.16,-0.03 -4.32,-0.03 -6.48,0.01 -0.2,0.44 -0.59,1.31 -0.79,1.75 2.53,-1.66 7.39,-1.38 6.47,2.73 -2.25,0.75 -4.58,1.24 -6.9,1.73 -0.37,2.03 -0.1,4.05 0.74,5.94 -2.75,0.86 -5.59,0.16 -8.4,0.19 -0.1,-1.34 -0.2,-2.67 -0.29,-4.01 -0.38,1.2 -0.75,2.41 -1.12,3.61 -0.79,0.05 -2.38,0.14 -3.18,0.19 -0.13,-3.7 -0.02,-7.52 2.13,-10.7 2.14,0.08 4.29,0.13 6.44,0.09 -2.26,-3.14 -6.34,-0.41 -9.41,-0.39 -0.07,3.68 -0.08,7.37 0.18,11.04 -3.09,3.44 -7.72,4.29 -12.05,5.1 0.03,0.28 0.08,0.85 0.11,1.14 0.03,0.45 0.09,1.36 0.13,1.81 -5.94,-4 -14.14,-3.9 -20.51,-1 0.04,0.52 0.12,1.55 0.16,2.07 -5.14,-2.32 -10.88,-2.75 -16.42,-2.04 -0.29,9.09 -0.21,18.21 -0.41,27.32 -0.23,-1.43 -0.45,-2.85 -0.6,-4.29 0.37,-8.15 0.22,-16.33 -0.73,-24.44 -9.3,-0.93 -19.35,-3.12 -28.21,0.8 -5.37,0.71 -5.75,7.33 -8.52,11.01 0.14,-2.37 0.16,-4.74 0.23,-7.11 -3.14,1.63 -6.6,2.54 -10.15,2.01 0.02,-10.38 -0.26,-20.76 -0.09,-31.14 1.58,1.19 3.52,2.52 5.19,0.68 3.61,-2.96 8.44,-1.62 12.61,-0.97 -0.36,-0.66 -0.71,-1.32 -1.06,-1.98 5.36,1.04 11.05,4.79 16.4,1.92 5.45,-2.83 11.77,-2.07 17.62,-1.28 3.92,1.04 6.66,-2.85 10.42,-3.12 3.27,0.1 4.68,-4.31 8.08,-3.31 3.23,0.72 6.4,0.05 9.1,-1.84 -3.32,-1.81 -5.23,-5.04 -7.25,-8.07 -8.16,-5.75 -19.14,-6.45 -27.36,-11.45 M 94.48,38.36 c 0.17,5.63 -0.07,11.27 0.18,16.9 6.73,0.77 16.73,0.47 17.67,-8.26 0.22,-9.46 -11.04,-9.67 -17.85,-8.64 m 59.25,1.6 c -0.21,1.33 -0.41,2.66 -0.61,3.99 -1.05,0.22 -2.11,0.43 -3.16,0.66 0.87,0.03 2.59,0.08 3.45,0.1 0.03,3.52 -0.07,7.05 0.29,10.56 1.66,0.1 3.33,0.19 5,0.28 -0.01,-0.24 -0.03,-0.72 -0.04,-0.96 -0.73,-0.01 -2.18,-0.03 -2.91,-0.04 -2.11,-2.82 -1.03,-6.57 -1.08,-9.82 1.06,-0.34 2.63,0.07 3.28,-1.11 -1,0.04 -1.99,0.1 -2.99,0.17 -0.39,-1.29 -0.79,-2.57 -1.23,-3.83 m -32.19,3.71 c -2.82,2.11 -5.38,6.23 -2.5,9.39 1.87,3.04 5.52,2.51 8.56,2.36 2.19,-2 5.21,-5.09 3.02,-8.18 -1.61,-3.55 -5.67,-3.96 -9.08,-3.57 m 15.15,8.76 c 0.96,0.95 1.91,1.92 2.85,2.91 2.34,0.08 4.69,0.09 7.04,0.04 0,-0.19 0,-0.57 0,-0.76 -5.89,1.94 -11.26,-4.25 -6.84,-9.3 2.25,-0.45 5.39,0.89 7.03,-1.15 -5.59,-2.62 -12.14,2 -10.08,8.26 m 30.92,-8.62 c -2.49,1.04 -4.76,3.2 -4.19,6.14 -0.3,7.48 13.15,7.29 13.07,0.01 0.83,-4.68 -5.01,-7.38 -8.88,-6.15 z"
             id="path107" />
        </g>
        <g
           id="#738f4dff">
          <path
             style="opacity:1;fill:#738f4d"
             inkscape:connector-curvature="0"
             d="m 135.57,7.72 c 17.03,-0.14 34.07,-0.17 51.09,0.1 4.97,1.28 10.4,0.35 14.94,3.18 -1.59,0.63 -3.18,1.26 -4.79,1.81 -6.03,0.73 -12.02,-0.52 -18.04,-0.63 -7.02,0.12 -14,-0.56 -21,-1.06 -7.31,-1.78 -15.13,-0.64 -22.2,-3.4 z"
             id="path110" />
        </g>
        <g
           id="#9aaf63ff">
          <path
             style="opacity:1;fill:#9aaf63"
             inkscape:connector-curvature="0"
             d="m 186.66,7.82 c 6.67,-0.29 13.36,-0.36 20.03,0.06 13.98,2.51 28.75,5.26 42.67,0.97 l 0.76,-0.19 c 0.09,10.85 1.15,21.89 -0.41,32.63 -0.21,-1.51 -0.44,-3.01 -0.6,-4.52 0.01,-1.58 0.04,-3.16 0.06,-4.74 0,-1.29 0,-2.58 0,-3.86 -0.02,-1.63 -0.02,-3.27 -0.02,-4.9 -0.12,-3.12 0.87,-8.35 -3.51,-8.85 C 230.88,15.26 216.13,13.29 201.6,11 197.06,8.17 191.63,9.1 186.66,7.82 Z"
             id="path113" />
        </g>
        <g
           id="#b1bd85ff">
          <path
             style="opacity:1;fill:#b1bd85"
             inkscape:connector-curvature="0"
             d="m 206.69,7.88 c 1.68,-0.1 3.36,-0.25 5.04,-0.41 11.1,0.26 22.2,0.2 33.31,0.11 1.4,0.31 3.79,-0.64 4.32,1.27 -13.92,4.29 -28.69,1.54 -42.67,-0.97 z"
             id="path116" />
        </g>
        <g
           id="#648f2eff">
          <path
             style="opacity:1;fill:#648f2e"
             inkscape:connector-curvature="0"
             d="m 157.77,11.12 c 7,0.5 13.98,1.18 21,1.06 15.97,7.53 33.64,10.6 50.81,14.35 6.63,-0.29 13.05,2.3 19.59,1.64 0,1.28 0,2.57 0,3.86 -4.89,1.41 -10.12,2.25 -15.1,0.75 -10.34,-2.91 -21.3,-2.85 -31.51,-6.24 -3.81,-1.28 -7.68,0.64 -11.54,0.36 -12.69,-0.93 -22.43,-10.06 -33.25,-15.78 z"
             id="path119" />
        </g>
        <g
           id="#89a53eff">
          <path
             style="opacity:1;fill:#89a53e"
             inkscape:connector-curvature="0"
             d="m 201.6,11 c 14.53,2.29 29.28,4.26 44.04,3.42 4.38,0.5 3.39,5.73 3.51,8.85 -6.37,-5.74 -15.28,-2.77 -22.96,-4.4 -9.78,-2.16 -19.91,-2.59 -29.38,-6.06 1.61,-0.55 3.2,-1.18 4.79,-1.81 z"
             id="path122" />
        </g>
        <g
           id="#769c2eff">
          <path
             style="opacity:1;fill:#769c2e"
             inkscape:connector-curvature="0"
             d="m 178.77,12.18 c 6.02,0.11 12.01,1.36 18.04,0.63 9.47,3.47 19.6,3.9 29.38,6.06 7.68,1.63 16.59,-1.34 22.96,4.4 0,1.63 0,3.27 0.02,4.9 -6.54,0.66 -12.96,-1.93 -19.59,-1.64 -17.17,-3.75 -34.84,-6.82 -50.81,-14.35 z"
             id="path125" />
        </g>
        <g
           id="#486e39ff">
          <path
             style="opacity:1;fill:#486e39"
             inkscape:connector-curvature="0"
             d="m 229.48,44.7 c 7,-1.67 16.53,0.81 19.63,-7.93 0.16,1.51 0.39,3.01 0.6,4.52 0.75,5.94 0.62,11.95 0.43,17.92 l -0.76,-0.54 c -0.31,-2.42 0.63,-5.73 -1.72,-7.33 -6.02,-1.09 -11.84,1.31 -17.3,3.52 -1.75,-2.64 -5.03,0.92 -7.23,-0.78 -1.8,-0.93 -2.81,-2.73 -3.02,-4.7 3.44,-0.12 6.9,-0.14 10.35,-0.16 -0.33,-1.51 -0.66,-3.02 -0.98,-4.52 z"
             id="path128" />
        </g>
        <g
           id="#747474ff">
          <path
             style="opacity:1;fill:#747474"
             inkscape:connector-curvature="0"
             d="m 5.44,38.27 c 3.15,-0.65 9.8,-2.2 11.51,1.4 -2.84,0.36 -5.7,0.53 -8.56,0.72 -0.04,1.53 -0.09,3.06 -0.16,4.59 2.43,0.46 4.91,0.47 7.37,0.48 0.08,0.55 0.23,1.64 0.31,2.19 -2.42,0 -4.85,-0.01 -7.27,-0.04 -0.4,1.85 -0.32,3.74 -0.05,5.61 2.71,-0.02 5.41,0.01 8.12,0.08 -0.03,0.56 -0.09,1.66 -0.12,2.21 C 12.9,55.4 9.22,55.44 5.53,55.43 5.14,49.72 5.11,43.97 5.44,38.27 Z"
             id="path131" />
        </g>
        <g
           id="#717171ff">
          <path
             style="opacity:1;fill:#717171"
             inkscape:connector-curvature="0"
             d="m 56.74,40 c -0.37,-1.68 1.45,-3.38 2.7,-1.66 0.05,5.63 0.46,11.33 -0.18,16.93 -0.43,0.11 -1.29,0.32 -1.72,0.43 -1.32,-5.13 -0.7,-10.47 -0.8,-15.7 z"
             id="path134" />
          <path
             style="opacity:1;fill:#717171"
             inkscape:connector-curvature="0"
             d="m 65.67,47.69 c 2.06,-6.44 12.2,-5.03 12.07,1.95 -3.22,0.7 -6.66,0.11 -9.78,1.24 2.13,3.31 5.97,2.68 9.15,1.55 -1.25,7.04 -14.31,2.04 -11.44,-4.74 m 2.8,0.69 c 1.91,-0.44 5.99,1.73 6.1,-1.38 -1.44,-2.4 -6.17,-1.7 -6.1,1.38 z"
             id="path136" />
        </g>
        <g
           id="#568b31ff">
          <path
             style="opacity:1;fill:#568b31"
             inkscape:connector-curvature="0"
             d="m 96.67,38.78 c 5.26,-0.66 13.74,0.45 13.95,7.22 0.72,7.28 -8.57,9.85 -14.28,8.16 -0.83,-5.07 -1.32,-10.41 0.33,-15.38 z"
             id="path139" />
        </g>
        <g
           id="#797979ff">
          <path
             style="opacity:1;fill:#797979"
             inkscape:connector-curvature="0"
             d="m 21.57,50.04 c -0.76,-5.6 5.92,-8.04 10.24,-5.95 -0.03,0.66 -0.07,1.97 -0.1,2.63 -1.26,-0.34 -2.51,-0.68 -3.76,-1.04 -3.06,0.42 -4.84,4.53 -2.35,6.69 1.89,1.13 4.19,0.82 6.3,1.01 -0.05,0.55 -0.13,1.64 -0.18,2.19 -4.14,0.69 -10.11,-0.2 -10.15,-5.53 z"
             id="path142" />
          <path
             style="opacity:1;fill:#797979"
             inkscape:connector-curvature="0"
             d="m 42.39,43.57 c 4.09,-1.09 9.41,1.8 8.97,6.43 -0.65,6.73 -11.67,7.9 -13.88,1.66 -1.28,-3.63 1.09,-7.59 4.91,-8.09 m 1.6,9.86 c 3.09,0.33 5.04,-2.68 4.52,-5.51 -1.71,-0.87 -3.39,-3.01 -5.52,-2.04 -4.41,0.47 -3.43,8.09 1,7.55 z"
             id="path144" />
        </g>
        <g
           id="#5d8835ff">
          <path
             style="opacity:1;fill:#5d8835"
             inkscape:connector-curvature="0"
             d="m 123.05,44.64 c 3.91,-1.28 8.17,3.62 6.2,7.35 -1.79,2.53 -6.21,3.91 -8.36,1.13 -3.4,-2.28 -1.06,-7.32 2.16,-8.48 z"
             id="path147" />
        </g>
        <g
           id="#5e853aff">
          <path
             style="opacity:1;fill:#5e853a"
             inkscape:connector-curvature="0"
             d="m 168.15,44.83 c 2.97,-1.34 7.29,1.59 6.65,4.98 0.58,4.93 -6.95,6.42 -9.3,2.56 -2.28,-2.61 -0.22,-6.46 2.65,-7.54 z"
             id="path150" />
        </g>
        <g
           id="#698951ff">
          <path
             style="opacity:1;fill:#698951"
             inkscape:connector-curvature="0"
             d="m 222.04,45.18 c 2.58,-0.85 7.26,-0.45 6.7,3.37 -2.67,0.05 -5.34,0.02 -8.01,-0.1 0.44,-1.09 0.88,-2.18 1.31,-3.27 z"
             id="path153" />
        </g>
        <g
           id="#fbfbfbff">
          <path
             style="opacity:1;fill:#fbfbfb"
             inkscape:connector-curvature="0"
             d="m 43.99,53.43 c -4.43,0.54 -5.41,-7.08 -1,-7.55 2.13,-0.97 3.81,1.17 5.52,2.04 0.52,2.83 -1.43,5.84 -4.52,5.51 z"
             id="path156" />
          <path
             style="opacity:1;fill:#fbfbfb"
             inkscape:connector-curvature="0"
             d="m 311.26,105.17 c 2.23,-1.37 5.89,-0.75 6.63,2.06 1.4,3.13 -2.93,6.39 -5.75,4.68 -2.82,-1.04 -3.46,-5.13 -0.88,-6.74 z"
             id="path158" />
        </g>
        <g
           id="#e7e7e7ff">
          <path
             style="opacity:1;fill:#e7e7e7"
             inkscape:connector-curvature="0"
             d="M 68.47,48.38 C 68.4,45.3 73.13,44.6 74.57,47 c -0.11,3.11 -4.19,0.94 -6.1,1.38 z"
             id="path161" />
        </g>
        <g
           id="#506731ff">
          <path
             style="opacity:1;fill:#506731"
             inkscape:connector-curvature="0"
             d="m 212.52,50.79 c 2.36,-0.47 4.43,-1.68 5.96,-3.56 -0.13,2.67 0.85,5.12 2.16,7.38 -0.57,1.19 -1.09,2.41 -1.58,3.63 -1.92,1.38 -4.69,2.07 -5.62,4.46 -5.89,0.07 -11.77,0.03 -17.65,0.06 -0.56,-0.47 -1.13,-0.93 -1.7,-1.38 -5.34,-3.25 -12.76,-2.19 -16.28,3.2 -1.15,-3.2 -4.21,-2.94 -7.01,-2.43 -0.03,-0.29 -0.08,-0.86 -0.11,-1.14 4.33,-0.81 8.96,-1.66 12.05,-5.1 l 0.66,-0.04 c 0.8,-0.05 2.39,-0.14 3.18,-0.19 0.37,-1.2 0.74,-2.41 1.12,-3.61 0.09,1.34 0.19,2.67 0.29,4.01 2.81,-0.03 5.65,0.67 8.4,-0.19 3.04,-0.8 6.2,-0.6 9.3,-0.5 l 0.74,-0.03 c 1.11,-1.38 2.12,-2.83 3.14,-4.28 0.25,1.54 0.5,3.09 0.76,4.63 0.53,0.07 1.57,0.21 2.1,0.28 l -0.13,-0.46 c 0.09,-1.58 0.16,-3.16 0.22,-4.74 z"
             id="path164" />
        </g>
        <g
           id="#6c8c45ff">
          <path
             style="opacity:1;fill:#6c8c45"
             inkscape:connector-curvature="0"
             d="m 197.27,50.54 c 1.77,-0.53 3.54,-1.19 5.42,-1.24 -0.06,1.77 -0.13,3.53 -0.21,5.3 -2,0.02 -4,-0.03 -5.99,-0.18 0.11,-1.32 0.37,-2.61 0.78,-3.88 z"
             id="path167" />
        </g>
        <g
           id="#2b5234ff">
          <path
             style="opacity:1;fill:#2b5234"
             inkscape:connector-curvature="0"
             d="m 230.36,54.86 c 5.46,-2.21 11.28,-4.61 17.3,-3.52 2.35,1.6 1.41,4.91 1.72,7.33 -0.13,7.38 0.12,14.78 -0.57,22.14 -0.87,-0.56 -1.73,-1.13 -2.57,-1.71 -4.08,-3.55 -9.54,-5.03 -13.24,-9.03 1.44,-6.06 8.61,-3.55 12.76,-2.14 -0.15,-9.14 -17.93,-6.32 -16.34,2.65 1.11,7.3 12.83,6.58 13.2,13.93 -3.17,4.35 -9.98,2.11 -13.22,-1.2 0.1,1.87 0.16,3.78 0.69,5.59 0.37,0.79 0.76,1.57 1.15,2.35 -0.45,1.24 -0.91,2.48 -1.36,3.72 2.55,3.13 8.2,4.18 8.08,8.98 0.26,3.28 0.3,6.58 0.15,9.87 -0.47,0.93 -0.95,1.86 -1.44,2.78 -0.88,-0.96 -1.77,-1.93 -2.69,-2.85 -0.68,-0.54 -1.4,-1.04 -2.1,-1.54 -0.09,-3.18 -0.2,-6.36 -0.59,-9.51 -2.69,-0.07 -5.92,-0.89 -7.75,1.66 1.95,-0.39 3.89,-0.81 5.84,-1.22 4.01,4.69 -3.13,4.44 -5.98,6.14 0.03,1.61 0.05,3.21 0.09,4.82 -7.24,1.34 -15.16,-0.11 -21.85,3.66 -1.96,1.39 -4.04,-0.31 -5.75,-1.26 0.06,-0.46 0.17,-1.38 0.23,-1.84 4.54,0.31 10.53,-3.54 7.86,-8.62 -3.16,-7.26 -15.29,-2.94 -12.8,4.96 -1.48,1.33 -2.97,2.7 -4.78,3.56 -0.01,-0.25 -0.03,-0.75 -0.04,-1 -1.32,-0.41 -2.64,-0.82 -3.95,-1.22 0.05,-2.89 0.09,-5.78 0.14,-8.67 1.3,-0.19 2.6,-0.39 3.9,-0.59 -0.76,-0.14 -2.29,-0.44 -3.05,-0.58 -0.03,-4.2 2.07,-7.43 5.46,-9.71 4.59,-5.46 0.46,-12.88 -2.36,-18.2 -2.5,-5.29 1.9,-10.5 7.05,-11.46 0.14,-0.44 0.41,-1.31 0.54,-1.75 0.57,0.45 1.14,0.91 1.7,1.38 0.55,9.2 -1.11,18.72 0.88,27.71 5.15,-0.29 10.32,0.18 15.47,-0.18 2.03,0.51 2.22,-3.86 -0.05,-3.49 -3.92,-0.32 -7.87,-0.03 -11.8,-0.11 -0.01,-2.76 0.02,-5.52 0.09,-8.29 4.04,-0.1 8.09,-0.15 12.13,-0.14 0.01,-0.9 0.02,-2.71 0.03,-3.61 -4.06,0.03 -8.11,-0.01 -12.16,-0.1 -0.09,-2.71 -0.1,-5.43 -0.05,-8.14 4.27,-1.12 12.96,2.99 13.11,-3.71 0.93,-2.39 3.7,-3.08 5.62,-4.46 0.49,-1.22 1.01,-2.44 1.58,-3.63 3.12,1.16 6.53,1.15 9.72,0.25 m -19.89,47.46 c 0,3.8 0.03,7.6 0.04,11.4 0.26,0.01 0.78,0.03 1.04,0.03 -1,-4.56 1.13,-12.94 7.22,-9.05 -0.1,-0.55 -0.31,-1.65 -0.42,-2.2 -1.96,-0.18 -3.79,0.52 -5.5,1.41 -0.8,-0.53 -1.6,-1.06 -2.38,-1.59 z"
             id="path170" />
        </g>
        <g
           id="#2f642cff">
          <path
             style="opacity:1;fill:#2f642c"
             inkscape:connector-curvature="0"
             d="m 177.81,64.58 c 3.52,-5.39 10.94,-6.45 16.28,-3.2 -0.13,0.44 -0.4,1.31 -0.54,1.75 -5.15,0.96 -9.55,6.17 -7.05,11.46 2.82,5.32 6.95,12.74 2.36,18.2 -3.39,2.28 -5.49,5.51 -5.46,9.71 -0.53,-1 -0.95,-2.04 -1.28,-3.11 -0.61,0.96 -1.23,1.91 -1.89,2.83 -0.84,-1.17 -1.67,-2.34 -2.51,-3.51 -1.78,0.23 -3.56,0.48 -5.33,0.75 0.31,0.99 0.63,1.98 0.95,2.98 -1.73,0.05 -3.45,0.08 -5.17,0.09 0.11,-1.22 0.22,-2.45 0.33,-3.67 -4.33,5.93 -12.03,-3.5 -14.97,3.5 -1.18,0.04 -2.37,0.11 -3.55,0.2 0.66,-0.92 1.3,-1.86 1.94,-2.8 -3.89,-0.07 -8,-4.4 -11.25,-0.64 -1.03,-0.21 -2.06,-0.41 -3.08,-0.66 -4.79,-1.87 -9.91,-2.18 -15,-1.82 -0.03,1.42 -0.06,2.85 -0.07,4.28 C 117.21,95.31 108.87,96.97 102,97.16 96.65,97.81 91.75,94.65 86.39,95.5 85.9,86.44 85.36,77.36 85.77,68.29 c 3.55,0.53 7.01,-0.38 10.15,-2.01 -0.07,2.37 -0.09,4.74 -0.23,7.11 -2.22,5.74 -5.55,10.97 -7.65,16.75 1.33,0.12 2.66,0.23 3.99,0.34 1.39,-2.7 2.78,-5.4 4.19,-8.08 4.38,-0.11 8.76,-0.13 13.13,0.1 1.97,3.41 3.27,9.33 8.43,7.81 -0.78,-1.76 -1.58,-3.52 -2.42,-5.26 0.67,-0.51 1.33,-1.01 2,-1.51 2.32,4.1 6.64,6.34 11.32,6.14 0.94,-1.72 1.87,-3.44 2.79,-5.17 0.55,0.5 1.11,1.01 1.68,1.51 0.15,1.44 0.37,2.86 0.6,4.29 6.58,-0.01 13.67,1.24 19.62,-2.34 0.81,0.58 1.63,1.15 2.45,1.73 0.08,-1.86 0.15,-3.71 0.22,-5.57 1.04,1.48 1.98,3.06 3.33,4.29 2.89,0.24 4.9,-2.41 7.06,-3.91 0.22,0.4 0.64,1.21 0.85,1.61 1.1,0.04 2.19,0.08 3.3,0.12 0.29,-7.43 -0.01,-14.86 0.35,-22.28 -0.04,-0.45 -0.1,-1.36 -0.13,-1.81 2.8,-0.51 5.86,-0.77 7.01,2.43 m -5.01,26.05 c 1.36,-0.11 2.59,-0.56 3.71,-1.34 -0.1,-8.56 -0.18,-17.12 0.1,-25.67 -1.19,-0.69 -2.46,-1.1 -3.83,-1.25 -1.68,9.18 -1.81,19.14 0.02,28.26 z"
             id="path173" />
        </g>
        <g
           id="#465a44ff">
          <path
             style="opacity:1;fill:#465a44"
             inkscape:connector-curvature="0"
             d="m 249.38,58.67 0.76,0.54 c 0.23,26.63 -0.03,53.28 0.14,79.92 -0.16,0.57 -0.49,1.7 -0.66,2.27 -0.08,-0.59 -0.25,-1.76 -0.33,-2.34 -0.04,-4.52 0.03,-9.04 -0.47,-13.54 0.24,-6.37 0.82,-12.84 -0.25,-19.16 -1.38,-2.19 -4.24,-1.9 -6.47,-2.03 -0.21,3.04 -0.33,6.09 -0.63,9.12 l -0.87,0.13 c -0.16,-5.46 -0.06,-10.92 0,-16.38 -0.3,0 -0.9,-0.01 -1.21,-0.01 0.06,5.5 0.17,11.01 -0.02,16.52 l -1.26,0.11 c 0.15,-3.29 0.11,-6.59 -0.15,-9.87 0.12,-4.8 -5.53,-5.85 -8.08,-8.98 0.45,-1.24 0.91,-2.48 1.36,-3.72 -0.39,-0.78 -0.78,-1.56 -1.15,-2.35 4.71,1.76 10.94,3.08 14.92,-0.88 2.45,-2.34 1.4,-5.97 1.23,-8.92 0.84,0.58 1.7,1.15 2.57,1.71 0.69,-7.36 0.44,-14.76 0.57,-22.14 z"
             id="path176" />
        </g>
        <g
           id="#35772aff">
          <path
             style="opacity:1;fill:#35772a"
             inkscape:connector-curvature="0"
             d="m 104.21,62.38 c 8.86,-3.92 18.91,-1.73 28.21,-0.8 0.95,8.11 1.1,16.29 0.73,24.44 -0.57,-0.5 -1.13,-1.01 -1.68,-1.51 -0.92,1.73 -1.85,3.45 -2.79,5.17 -4.68,0.2 -9,-2.04 -11.32,-6.14 -0.67,0.5 -1.33,1 -2,1.51 -3.76,-7.53 -7.55,-15.06 -11.15,-22.67 z"
             id="path179" />
        </g>
        <g
           id="#37752bff">
          <path
             style="opacity:1;fill:#37752b"
             inkscape:connector-curvature="0"
             d="m 150.42,62.96 c 6.37,-2.9 14.57,-3 20.51,1 -0.36,7.42 -0.06,14.85 -0.35,22.28 -1.11,-0.04 -2.2,-0.08 -3.3,-0.12 -0.21,-0.4 -0.63,-1.21 -0.85,-1.61 -2.16,1.5 -4.17,4.15 -7.06,3.91 -1.35,-1.23 -2.29,-2.81 -3.33,-4.29 -0.07,1.86 -0.14,3.71 -0.22,5.57 -0.82,-0.58 -1.64,-1.15 -2.45,-1.73 3.31,-4.85 0.65,-10.85 -4.96,-12.14 3.92,-2.4 5.2,-7.07 2.17,-10.8 -0.04,-0.52 -0.12,-1.55 -0.16,-2.07 z"
             id="path182" />
        </g>
        <g
           id="#4b683fff">
          <path
             style="opacity:1;fill:#4b683f"
             inkscape:connector-curvature="0"
             d="m 138.43,66.43 c 3.18,0.06 9.08,-1.08 9.27,3.53 0.42,4.97 -5.64,4.79 -9.1,4.61 -0.4,-2.7 -0.25,-5.43 -0.17,-8.14 z"
             id="path185" />
        </g>
        <g
           id="#4a684dff">
          <path
             style="opacity:1;fill:#4a684d"
             inkscape:connector-curvature="0"
             d="m 102.16,69.77 c 2.52,2.2 4.06,5.54 4.63,8.81 -2.87,0.07 -5.75,0.2 -8.59,-0.22 1.03,-2.99 2.39,-5.85 3.96,-8.59 z"
             id="path188" />
        </g>
        <g
           id="#3d6c3aff">
          <path
             style="opacity:1;fill:#3d6c3a"
             inkscape:connector-curvature="0"
             d="m 138.42,78.35 c 4.26,0.07 9.26,-0.97 12.29,2.84 0.26,6.81 -7.77,5.54 -12.3,5.42 -0.02,-2.76 -0.01,-5.51 0.01,-8.26 z"
             id="path191" />
        </g>
        <g
           id="#757878ff">
          <path
             style="opacity:1;fill:#757878"
             inkscape:connector-curvature="0"
             d="m 257.59,101.02 c -0.45,-5.63 10.74,-6.64 10.86,-1.46 -2.92,-0.14 -6.52,-2.15 -8.32,1.44 2.51,3.43 9.39,3.65 8.65,8.98 0.64,6 -12.09,6.22 -10.61,0.25 2.59,1.33 6.47,2.91 8.36,-0.3 -1.89,-4.03 -8.49,-4.01 -8.94,-8.91 z"
             id="path194" />
        </g>
        <g
           id="#828282ff">
          <path
             style="opacity:1;fill:#828282"
             inkscape:connector-curvature="0"
             d="m 345.62,96.66 c 0.57,-0.1 1.7,-0.31 2.26,-0.41 1.08,5.19 0.31,10.55 0.51,15.81 0.43,1.83 -1.6,3.4 -2.86,1.63 -0.08,-5.67 -0.2,-11.36 0.09,-17.03 z"
             id="path197" />
        </g>
        <g
           id="#707070ff">
          <path
             style="opacity:1;fill:#707070"
             inkscape:connector-curvature="0"
             d="m 290.17,96.73 c 3.82,-1.23 2.26,3.88 2.64,6.02 7.75,-3.42 11.2,6.81 7.18,11.95 -3.26,-2.45 0.16,-7.4 -2.57,-10.13 -1.43,-0.53 -2.92,0.26 -4.33,0.47 -0.49,3.12 -0.43,6.3 -0.59,9.45 -0.51,0.02 -1.53,0.06 -2.04,0.08 -0.58,-5.93 -0.07,-11.89 -0.29,-17.84 z"
             id="path200" />
        </g>
        <g
           id="#31442aff">
          <path
             style="opacity:1;fill:#31442a"
             inkscape:connector-curvature="0"
             d="m 124.21,98.23 c 5.01,-2.08 14.37,-0.05 14.32,6.74 0.82,7.13 -9.06,10.11 -14.2,7.72 -1.2,-4.39 -0.98,-10.1 -0.12,-14.46 z"
             id="path203" />
        </g>
        <g
           id="#787878ff">
          <path
             style="opacity:1;fill:#787878"
             inkscape:connector-curvature="0"
             d="m 274.02,106.98 c 0.69,-4.65 7.7,-6.32 10.61,-2.92 -3.42,0.72 -7.83,0.27 -8.28,4.99 1.58,3.42 5.45,3.11 8.63,3.42 -2.97,5.08 -13.34,0.53 -10.96,-5.49 z"
             id="path206" />
        </g>
        <g
           id="#767676ff">
          <path
             style="opacity:1;fill:#767676"
             inkscape:connector-curvature="0"
             d="m 307.76,112.27 c -5.64,-8.59 9.73,-14.18 12.82,-5.97 2.27,7.63 -8.06,10.6 -12.82,5.97 m 3.5,-7.1 c -2.58,1.61 -1.94,5.7 0.88,6.74 2.82,1.71 7.15,-1.55 5.75,-4.68 -0.74,-2.81 -4.4,-3.43 -6.63,-2.06 z"
             id="path209" />
        </g>
        <g
           id="#7a7a7aff">
          <path
             style="opacity:1;fill:#7a7a7a"
             inkscape:connector-curvature="0"
             d="m 330.35,102.51 c 3.78,-1 9.7,0.81 9.38,5.52 0.78,7.1 -10.83,8.95 -13.53,2.92 -1.28,-3.36 0.73,-7.43 4.15,-8.44 m -0.77,8.85 c 1.16,0.38 2.32,0.78 3.48,1.19 4.29,-0.23 5.4,-7.05 0.95,-7.87 -4.09,-1.31 -7.17,3.41 -4.43,6.68 z"
             id="path212" />
        </g>
        <g
           id="#303e28ff">
          <path
             style="opacity:1;fill:#303e28"
             inkscape:connector-curvature="0"
             d="m 149.08,112.09 c -3.36,-2.39 -1.52,-7.08 1.64,-8.69 2.95,-0.24 6.44,1.21 6.84,4.48 0.73,4.38 -5.39,7.27 -8.48,4.21 z"
             id="path215" />
        </g>
        <g
           id="#384a36ff">
          <path
             style="opacity:1;fill:#384a36"
             inkscape:connector-curvature="0"
             d="m 199.01,113.28 c -6.42,1.55 -8.93,-7.15 -3.18,-9.88 6.59,-2.01 10.04,8.18 3.18,9.88 z"
             id="path218" />
        </g>
        <g
           id="#1d5b28ff">
          <path
             style="opacity:1;fill:#1d5b28"
             inkscape:connector-curvature="0"
             d="m 242.1,104.33 c 2.23,0.13 5.09,-0.16 6.47,2.03 1.07,6.32 0.49,12.79 0.25,19.16 -1.96,3.11 -2.39,7.42 -5.54,9.61 -8.3,-0.77 -17.14,1.72 -25.04,-2.42 -7.69,-4.7 -16.19,1.94 -24.33,-0.42 -11.52,-2.81 -22.78,5.11 -34.1,1.41 -7.45,-3.14 -15.62,-0.56 -23.27,-2.52 0.34,-1.29 0.68,-2.58 1.02,-3.87 15.26,0.29 29.74,-6.18 44.98,-5.32 4.16,-3.02 10.61,-0.57 13.35,-5.49 1.71,0.95 3.79,2.65 5.75,1.26 6.69,-3.77 14.61,-2.32 21.85,-3.66 3.5,0.18 7.02,0.3 10.49,-0.35 0.92,0.92 1.81,1.89 2.69,2.85 0.49,-0.92 0.97,-1.85 1.44,-2.78 l 1.26,-0.11 c 0.31,-0.04 0.92,-0.1 1.23,-0.13 l 0.87,-0.13 c 0.3,-3.03 0.42,-6.08 0.63,-9.12 z"
             id="path221" />
        </g>
        <g
           id="#f9f9f9ff">
          <path
             style="opacity:1;fill:#f9f9f9"
             inkscape:connector-curvature="0"
             d="m 329.58,111.36 c -2.74,-3.27 0.34,-7.99 4.43,-6.68 4.45,0.82 3.34,7.64 -0.95,7.87 -1.16,-0.41 -2.32,-0.81 -3.48,-1.19 z"
             id="path224" />
        </g>
        <g
           id="#345936ff">
          <path
             style="opacity:1;fill:#345936"
             inkscape:connector-curvature="0"
             d="m 224.6,113.28 c -1.3,-3.83 2.92,-5.62 6.03,-4.98 0,0.97 -0.02,2.93 -0.03,3.91 -1.73,1.51 -3.87,1.49 -6,1.07 z"
             id="path227" />
        </g>
        <g
           id="#204f2aff">
          <path
             style="opacity:1;fill:#204f2a"
             inkscape:connector-curvature="0"
             d="m 186.4,114.56 c 1.81,-0.86 3.3,-2.23 4.78,-3.56 1.55,1.35 3.2,2.57 4.94,3.66 -0.06,0.46 -0.17,1.38 -0.23,1.84 -2.74,4.92 -9.19,2.47 -13.35,5.49 -15.24,-0.86 -29.72,5.61 -44.98,5.32 -0.34,1.29 -0.68,2.58 -1.02,3.87 7.65,1.96 15.82,-0.62 23.27,2.52 11.32,3.7 22.58,-4.22 34.1,-1.41 8.14,2.36 16.64,-4.28 24.33,0.42 7.9,4.14 16.74,1.65 25.04,2.42 3.15,-2.19 3.58,-6.5 5.54,-9.61 0.5,4.5 0.43,9.02 0.47,13.54 -16.95,2.29 -34.21,0.32 -51.29,0.95 -9.03,0.38 -18,-1.99 -26.97,-0.1 -26.96,0.16 -53.97,0.35 -80.92,-0.06 -5.53,-2.62 -2.42,-10.51 0.61,-14.14 5.3,-2.13 10.79,2.14 16.31,1.34 4.15,0.15 6.77,-4.21 10.91,-4 8.17,0.26 15.9,-2.97 24.04,-3.04 6.82,-0.06 13.78,0.32 20.38,-1.78 6.31,-2.43 13.3,-0.5 19.32,-3.99 1.57,0.1 3.14,0.2 4.72,0.32 z"
             id="path230" />
        </g>
      </g>
      <g
         transform="matrix(1.6933333,0,0,1.6933333,-89.814398,142.39691)"
         id="g376"
         style="fill:none">
        <path
           style="fill:#00a3a6"
           inkscape:connector-curvature="0"
           d="m 4.90002,0.579987 h -4.55 c -0.18,0 -0.3300005,0.149998 -0.3300005,0.329998 V 27.24 c 0,0.18 0.1500005,0.33 0.3300005,0.33 h 4.55 c 0.18,0 0.33,-0.15 0.33,-0.33 V 0.909985 c 0,-0.18 -0.15,-0.329998 -0.33,-0.329998 z"
           id="path356" />
        <path
           style="fill:#00a3a6"
           inkscape:connector-curvature="0"
           d="m 30.55,0.579987 h -4.53 c -0.18,0 -0.33,0.149998 -0.33,0.329998 V 18.52 L 14.53,0.739986 c -0.06,-0.1 -0.17,-0.150001 -0.28,-0.150001 H 9.69005 c -0.18,0 -0.33,0.149998 -0.33,0.329998 V 27.25 c 0,0.18 0.15,0.33 0.33,0.33 H 14.26 c 0.18,0 0.33,-0.15 0.33,-0.33 V 9.70998 L 25.7,27.42 c 0.06,0.1 0.17,0.15 0.28,0.15 h 4.57 c 0.18,0 0.33,-0.15 0.33,-0.33 V 0.909985 c 0,-0.18 -0.15,-0.329998 -0.33,-0.329998"
           id="path358" />
        <path
           style="fill:#00a3a6"
           inkscape:connector-curvature="0"
           d="m 49.68,16.2 c 1.41,-0.65 2.54,-1.56 3.36,-2.71 0.89,-1.24 1.33,-2.79 1.33,-4.62002 0,-2.67 -0.87,-4.74999 -2.59,-6.16999 -1.7,-1.41 -4.14,-2.120003 -7.24,-2.120003 h -9.25 c -0.18,0 -0.33,0.149998 -0.33,0.329998 V 27.24 c 0,0.18 0.15,0.33 0.33,0.33 h 4.57 c 0.18,0 0.33,-0.15 0.33,-0.33 v -9.8 h 4.57 l 5.18,9.95 c 0.06,0.11 0.17,0.18 0.29,0.18 h 4.89 c 0.18,0 0.33,-0.15 0.33,-0.33 v -0.23 c 0,-0.06 -0.01,-0.11 -0.04,-0.16 z m -1.73,-4.18 c -0.8,0.72 -1.94,1.08 -3.39,1.08 H 40.19 V 4.92999 h 4.49 c 1.5,0.02 2.63,0.38999 3.36,1.09999 0.73,0.7 1.1,1.73 1.1,3.04 C 49.14,10.33 48.75,11.3 47.95,12.02"
           id="path360" />
        <path
           style="fill:#00a3a6"
           inkscape:connector-curvature="0"
           d="m 71.8,18.39 0.04,0.1 H 64.17 L 64.78,16.75 68,7.49999 Z M 92.09,4.92999 c 1.15,0 2.27,0.21 3.34,0.63 C 92.75,10.51 88.45,14.4 83.27,16.57 83.04,15.76 82.93,14.94 82.93,14.1 c 0,-5.05001 4.11,-9.16001 9.16,-9.17001 z M 105.89,14.1 c 0,-1.85 -0.39,-3.67 -1.11,-5.37001 -0.13,-0.19 -0.26,-0.08 -0.31,-0.03 L 101.73,13 c -0.25,0.43 -0.42,0.73 -0.47,1.8 0,0.07 -0.01,0.13 -0.02,0.19 -0.45,4.64 -4.37,8.28 -9.13,8.28 -0.89,0 -1.78,-0.13 -2.63,-0.39 -1.45,-0.44 -2.79,-1.24 -3.86,-2.31 -0.04,-0.04 -0.08,-0.08 -0.11,-0.12 5.85,-2.58 10.74,-7.08 13.82,-12.70001 0.67,-1.23 1.26,-2.52 1.75,-3.84 0.05,-0.13 0.01,-0.28 -0.1,-0.37 -1.02,-0.86 -2.16,-1.57 -3.38,-2.1 C 95.86,0.679987 94.02,0.299988 92.11,0.299988 H 92.1 c 0,0 0,0 -0.01,0 -4.72,0 -8.88,2.390002 -11.37,6.020002 -1.52,2.21 -2.41,4.89001 -2.41,7.77001 0,1.3 0.18,2.6 0.55,3.84 -0.63,0.13 -1.26,0.24 -1.89,0.32 L 70.37,0.779987 c -0.05,-0.13 -0.17,-0.209999 -0.31,-0.209999 h -4.1 c -0.14,0 -0.26,0.079999 -0.31,0.209999 L 55.72,27.11 c -0.04,0.1 -0.02,0.21 0.04,0.3 0.06,0.09 0.16,0.14 0.27,0.14 h 4.75 c 0.14,0 0.26,-0.09 0.31,-0.22 l 1.59,-4.58 h 10.65 l 0.05,0.14 1.55,4.44 c 0.05,0.13 0.17,0.22 0.31,0.22 h 4.77 c 0.11,0 0.21,-0.05 0.27,-0.14 0.06,-0.09 0.08,-0.2 0.04,-0.3 l -1.74,-4.6 c 0.74,-0.12 1.48,-0.28 2.21,-0.46 0.02,-0.01 0.04,-0.01 0.06,-0.01 0.02,0.03 0.04,0.06 0.06,0.09 0.9,1.26 2,2.34 3.27,3.24 2.33,1.64 5.06,2.51 7.91,2.51 0.01,0 0.01,0 0.02,0 7.59,0.01 13.78,-6.17 13.78,-13.78"
           id="path362" />
      </g>
      <g
         inkscape:label="Calque 1"
         id="layer1-9"
         transform="matrix(3.6,0,0,3.6,-630.40024,-319.77556)">
        <g
           id="g875"
           transform="matrix(0.35277777,0,0,-0.35277777,199.99832,106.81199)">
          <path
             inkscape:connector-curvature="0"
             d="m 0,0 -17.334,-40.837 h 6.198 l 5.07,11.943 h 18.33 l -2.63,6.199 H -3.434 L 3.1,-7.302 Z"
             style="fill:#38b974;fill-opacity:1;fill-rule:nonzero;stroke:none"
             id="path877" />
        </g>
        <g
           id="g879"
           transform="matrix(0.35277777,0,0,-0.35277777,7.0250049,385.93957)">
          <g
             id="g881"
             clip-path="url(#clipPath885)">
            <g
               id="g887"
               transform="translate(520.0019,766.7347)">
              <path
                 inkscape:connector-curvature="0"
                 d="m 0,0 h 1.474 v 6.949 c 0.653,1.327 1.685,2.379 2.906,2.379 1.242,0 2.148,-0.779 2.148,-2.484 V 0 h 1.474 v 7.265 c 0,2 -1.137,3.474 -3.369,3.474 -1.411,0 -2.422,-0.589 -3.159,-1.705 v 5.075 H 0 Z m -6.107,-0.211 c 2.632,0 4.296,1.643 4.548,3.98 H -3.264 C -3.475,2.19 -4.486,1.2 -6.107,1.2 c -2.127,0 -3.137,1.643 -3.137,4.064 0,2.422 1.01,4.064 3.137,4.064 1.537,0 2.548,-0.863 2.759,-2.274 h 1.726 c -0.358,2.169 -1.979,3.685 -4.485,3.685 -3.179,0 -4.822,-2.379 -4.822,-5.475 0,-3.095 1.643,-5.475 4.822,-5.475 m -14.024,6.276 c 0.19,1.979 1.2,3.305 3.117,3.305 1.958,0 2.884,-1.326 3.053,-3.305 z m 3.222,-6.276 c 2.506,0 4.085,1.495 4.527,3.686 h -1.727 c -0.358,-1.412 -1.242,-2.275 -2.8,-2.275 -1.979,0 -3.096,1.411 -3.243,3.538 h 7.812 c 0.021,0.4 0.021,0.611 0.021,1.074 0,2.253 -1.263,4.927 -4.695,4.927 -3.222,0 -4.823,-2.379 -4.823,-5.475 0,-3.095 1.706,-5.475 4.928,-5.475 M -26.28,0 h 1.684 v 12.592 h 4.907 v 1.517 h -11.518 v -1.517 h 4.927 z m -13.077,12.234 c 0.569,0 1.032,0.463 1.032,1.032 0,0.59 -0.463,1.053 -1.032,1.053 -0.589,0 -1.053,-0.463 -1.053,-1.053 0,-0.569 0.464,-1.032 1.053,-1.032 m 6.718,-12.445 c 2.358,0 3.643,1.39 3.643,3.243 0,1.6 -0.948,2.506 -2.506,2.927 l -1.622,0.442 c -1.031,0.274 -1.6,0.695 -1.6,1.643 0,0.59 0.421,1.348 1.853,1.348 1.201,0 1.832,-0.632 2.064,-1.643 l 1.558,0.021 c -0.337,2.19 -1.853,2.969 -3.622,2.969 -2.148,0 -3.411,-1.095 -3.411,-2.842 0,-1.58 1.137,-2.485 2.505,-2.843 l 1.58,-0.422 c 1.032,-0.273 1.621,-0.863 1.621,-1.895 0,-0.968 -0.821,-1.537 -2.063,-1.537 -1.769,0 -2.274,1.011 -2.422,2.337 h -1.558 c 0.084,-2.021 1.369,-3.748 3.98,-3.748 M -40.094,0 h 1.474 v 10.529 h -1.474 z m -6.464,0 h 1.474 v 6.17 c 0.547,1.579 1.221,2.927 2.821,2.927 0.211,0 0.464,-0.021 0.695,-0.063 v 1.663 c -0.147,0.021 -0.316,0.042 -0.547,0.042 -1.537,0 -2.401,-0.99 -2.969,-2.19 v 1.98 h -1.474 z m -7.075,-0.211 c 1.726,0 2.821,0.822 3.474,1.706 V 0 h 1.579 c -0.084,0.758 -0.168,1.601 -0.168,2.316 v 4.886 c 0,2.19 -1.327,3.537 -3.706,3.537 -2.19,0 -3.601,-1.158 -3.917,-3.243 h 1.537 c 0.19,1.327 1.011,1.938 2.38,1.938 1.537,0 2.232,-0.948 2.232,-2.296 V 6.612 l -2.064,-0.295 c -2.653,-0.379 -4.78,-1.032 -4.78,-3.559 0,-2.063 1.579,-2.969 3.433,-2.969 m 0.189,1.306 c -1.327,0 -1.958,0.842 -1.958,1.79 0,1.474 1.705,2 3.474,2.274 l 1.706,0.253 V 3.243 c -0.801,-1.095 -1.601,-2.148 -3.222,-2.148 m -11.708,5.18 v 6.317 h 2.422 c 2.485,0 3.769,-0.989 3.769,-3.095 0,-2.211 -1.327,-3.117 -4.191,-3.18 z M -66.837,0 h 1.685 v 4.822 h 2.043 c 3.874,0 6.001,1.622 6.001,4.675 0,2.969 -1.979,4.612 -5.517,4.612 h -4.212 z m -6.591,1.2 c -2.105,0 -3.222,1.643 -3.222,4.064 0,2.422 1.117,4.064 3.222,4.064 2.106,0 3.222,-1.642 3.222,-4.064 0,-2.421 -1.116,-4.064 -3.222,-4.064 m 0,-1.411 c 3.159,0 4.907,2.38 4.907,5.475 0,3.096 -1.748,5.475 -4.907,5.475 -3.158,0 -4.906,-2.379 -4.906,-5.475 0,-3.095 1.748,-5.475 4.906,-5.475 M -83.746,0 h 1.474 v 6.17 c 0.548,1.579 1.222,2.927 2.822,2.927 0.211,0 0.463,-0.021 0.695,-0.063 v 1.663 c -0.148,0.021 -0.316,0.042 -0.548,0.042 -1.537,0 -2.4,-0.99 -2.969,-2.19 v 1.98 h -1.474 z m -6.822,4.506 c -1.538,0 -2.443,1.011 -2.443,2.464 0,1.411 0.905,2.422 2.443,2.422 1.537,0 2.421,-1.011 2.421,-2.422 0,-1.453 -0.905,-2.464 -2.421,-2.464 m 0.21,-8.928 c 3.327,0 5.012,1.284 5.012,3.264 0,1.747 -1.285,2.527 -3.201,2.527 h -3.095 c -0.822,0 -1.285,0.252 -1.285,0.821 0,0.653 0.674,0.947 1.516,1.032 0.274,-0.043 0.548,-0.064 0.843,-0.064 2.21,0 4.001,1.58 4.001,3.812 0,0.821 -0.232,1.558 -0.632,2.148 h 1.727 v 1.411 h -3.664 c -0.443,0.147 -0.906,0.21 -1.432,0.21 -2.422,0 -4.001,-1.6 -4.022,-3.769 -0.021,-1.39 0.61,-2.527 1.663,-3.18 -0.969,-0.4 -1.516,-1.053 -1.516,-1.832 0,-0.631 0.337,-1.242 1.011,-1.621 -1.032,-0.337 -1.706,-1.116 -1.706,-2.127 0,-1.495 1.411,-2.632 4.78,-2.632 m 0,1.368 c -1.874,0 -3.222,0.527 -3.222,1.664 0,0.821 0.801,1.2 1.811,1.39 h 2.906 c 1.074,0 1.895,-0.485 1.895,-1.327 0,-1.011 -0.947,-1.727 -3.39,-1.727 m -13.772,8.36 2.506,6.781 2.506,-6.781 z M -107.835,0 h 1.747 l 1.39,3.79 h 6.149 L -97.159,0 h 1.81 l -5.348,14.109 h -1.79 z"
                 style="fill:#231f20;fill-opacity:1;fill-rule:nonzero;stroke:none"
                 id="path889" />
            </g>
            <g
               id="g891"
               transform="translate(396.4489,758.8455)">
              <path
                 inkscape:connector-curvature="0"
                 d="M 0,0 H -1.817 V -5.47 H -2.776 V 0 H -4.593 V 0.859 H 0 Z"
                 style="fill:#38b974;fill-opacity:1;fill-rule:nonzero;stroke:none"
                 id="path893" />
            </g>
            <g
               id="g895"
               transform="translate(399.034,755.4457)">
              <path
                 inkscape:connector-curvature="0"
                 d="m 0,0 -1.076,-0.109 c -0.533,-0.045 -0.904,-0.28 -0.904,-0.714 0,-0.452 0.343,-0.615 0.75,-0.615 0.561,0 1.23,0.29 1.23,1.103 z M 1.383,-1.375 V -2.071 H 0.967 c -0.425,0 -0.723,0.136 -0.849,0.561 -0.308,-0.389 -0.805,-0.651 -1.483,-0.651 -0.877,0 -1.537,0.416 -1.537,1.302 0,0.859 0.651,1.302 1.518,1.383 L 0,0.66 v 0.226 c 0,0.579 -0.325,0.904 -0.886,0.904 -0.57,0 -0.841,-0.325 -0.922,-0.796 h -0.914 c 0.082,0.896 0.751,1.547 1.836,1.547 1.031,0 1.808,-0.561 1.808,-1.691 v -1.853 c 0,-0.254 0.118,-0.372 0.344,-0.372 z"
                 style="fill:#38b974;fill-opacity:1;fill-rule:nonzero;stroke:none"
                 id="path897" />
            </g>
            <path
               inkscape:connector-curvature="0"
               d="m 401.366,759.795 h 0.922 v -6.42 h -0.922 z"
               style="fill:#38b974;fill-opacity:1;fill-rule:nonzero;stroke:none"
               id="path899" />
            <g
               id="g901"
               transform="translate(404.2045,756.0515)">
              <path
                 inkscape:connector-curvature="0"
                 d="M 0,0 H 2.459 C 2.45,0.696 1.98,1.185 1.284,1.185 0.57,1.185 0.09,0.66 0,0 m 3.336,-0.651 h -3.345 c 0.045,-0.805 0.533,-1.365 1.329,-1.365 0.57,0 0.986,0.235 1.13,0.696 H 3.336 C 3.147,-2.224 2.387,-2.767 1.32,-2.767 c -1.302,0 -2.233,0.913 -2.233,2.306 0,1.473 0.967,2.396 2.197,2.396 1.103,0 2.071,-0.732 2.071,-2.288 0,-0.09 -0.009,-0.181 -0.019,-0.298"
                 style="fill:#38b974;fill-opacity:1;fill-rule:nonzero;stroke:none"
                 id="path903" />
            </g>
            <g
               id="g905"
               transform="translate(408.4985,757.8959)">
              <path
                 inkscape:connector-curvature="0"
                 d="m 0,0 h 0.832 l 0.09,-0.542 h 0.064 c 0.253,0.343 0.623,0.633 1.32,0.633 1.003,0 1.69,-0.643 1.69,-1.809 V -4.521 H 3.074 v 2.604 c 0,0.832 -0.452,1.203 -1.03,1.203 -0.588,0 -1.122,-0.38 -1.122,-1.275 V -4.521 H 0 Z"
                 style="fill:#38b974;fill-opacity:1;fill-rule:nonzero;stroke:none"
                 id="path907" />
            </g>
            <g
               id="g909"
               transform="translate(414.0311,754.4692)">
              <path
                 inkscape:connector-curvature="0"
                 d="m 0,0 v 2.685 h -0.977 v 0.742 h 0.317 c 0.533,0 0.732,0.19 0.732,0.678 V 4.656 H 0.913 V 3.427 H 2.062 V 2.685 H 0.913 V 0.126 c 0,-0.298 0.109,-0.569 0.588,-0.569 0.145,0 0.307,0.027 0.443,0.072 V -1.085 C 1.772,-1.13 1.537,-1.185 1.239,-1.185 0.181,-1.185 0,-0.516 0,0"
                 style="fill:#38b974;fill-opacity:1;fill-rule:nonzero;stroke:none"
                 id="path911" />
            </g>
            <g
               id="g913"
               transform="translate(416.6977,754.7765)">
              <path
                 inkscape:connector-curvature="0"
                 d="m 0,0 h 0.886 c 0.054,-0.579 0.461,-0.786 0.959,-0.786 0.415,0 0.786,0.162 0.786,0.569 0,0.452 -0.416,0.624 -0.886,0.751 L 1.392,0.624 C 0.832,0.778 0.136,1.022 0.136,1.89 c 0,0.841 0.741,1.32 1.591,1.32 1.139,0 1.655,-0.651 1.7,-1.32 H 2.541 C 2.495,2.251 2.206,2.505 1.736,2.505 1.338,2.505 1.022,2.306 1.022,1.935 1.022,1.537 1.392,1.42 1.835,1.293 L 2.179,1.203 C 2.875,1.013 3.517,0.669 3.517,-0.19 3.517,-1.094 2.758,-1.492 1.853,-1.492 0.651,-1.492 0.045,-0.886 0,0"
                 style="fill:#38b974;fill-opacity:1;fill-rule:nonzero;stroke:none"
                 id="path915" />
            </g>
            <g
               id="g917"
               transform="translate(426.5519,755.6446)">
              <path
                 inkscape:connector-curvature="0"
                 d="m 0,0 c 0,0.913 -0.497,1.537 -1.266,1.537 -0.778,0 -1.311,-0.624 -1.311,-1.537 0,-0.931 0.533,-1.555 1.311,-1.555 C -0.497,-1.555 0,-0.931 0,0 M 0.922,4.15 V -2.269 H 0.172 L 0.09,-1.664 H 0.027 c -0.226,-0.307 -0.669,-0.696 -1.429,-0.696 -1.211,0 -2.097,0.932 -2.097,2.36 0,1.447 0.913,2.342 2.097,2.342 0.697,0 1.167,-0.317 1.402,-0.615 V 4.15 Z"
                 style="fill:#38b974;fill-opacity:1;fill-rule:nonzero;stroke:none"
                 id="path919" />
            </g>
            <g
               id="g921"
               transform="translate(429.5077,759.0172)">
              <path
                 inkscape:connector-curvature="0"
                 d="m 0,0 c 0,-0.778 -0.506,-1.284 -0.922,-1.546 l -0.244,0.298 c 0.28,0.235 0.515,0.543 0.533,0.877 -0.262,-0.036 -0.533,0.172 -0.533,0.552 0,0.361 0.244,0.587 0.569,0.587 C -0.217,0.768 0,0.434 0,0"
                 style="fill:#38b974;fill-opacity:1;fill-rule:nonzero;stroke:none"
                 id="path923" />
            </g>
            <g
               id="g925"
               transform="translate(433.8656,753.3751)">
              <path
                 inkscape:connector-curvature="0"
                 d="m 0,0 h -0.832 l -0.09,0.542 h -0.064 c -0.253,-0.343 -0.623,-0.632 -1.32,-0.632 -1.003,0 -1.69,0.642 -1.69,1.808 v 2.803 h 0.922 V 1.917 c 0,-0.832 0.452,-1.203 1.03,-1.203 0.588,0 1.122,0.38 1.122,1.275 V 4.521 H 0 Z"
                 style="fill:#38b974;fill-opacity:1;fill-rule:nonzero;stroke:none"
                 id="path927" />
            </g>
            <g
               id="g929"
               transform="translate(435.0219,757.8959)">
              <path
                 inkscape:connector-curvature="0"
                 d="m 0,0 h 0.832 l 0.09,-0.542 h 0.064 c 0.253,0.343 0.623,0.633 1.32,0.633 1.003,0 1.69,-0.643 1.69,-1.809 V -4.521 H 3.074 v 2.604 c 0,0.832 -0.452,1.203 -1.03,1.203 -0.588,0 -1.122,-0.38 -1.122,-1.275 V -4.521 H 0 Z"
                 style="fill:#38b974;fill-opacity:1;fill-rule:nonzero;stroke:none"
                 id="path931" />
            </g>
            <g
               id="g933"
               transform="translate(440.8619,756.0515)">
              <path
                 inkscape:connector-curvature="0"
                 d="M 0,0 H 2.459 C 2.45,0.696 1.98,1.185 1.284,1.185 0.57,1.185 0.09,0.66 0,0 m 3.336,-0.651 h -3.345 c 0.045,-0.805 0.533,-1.365 1.329,-1.365 0.57,0 0.986,0.235 1.13,0.696 H 3.336 C 3.147,-2.224 2.387,-2.767 1.32,-2.767 c -1.302,0 -2.233,0.913 -2.233,2.306 0,1.473 0.967,2.396 2.197,2.396 1.103,0 2.071,-0.732 2.071,-2.288 0,-0.09 -0.009,-0.181 -0.019,-0.298"
                 style="fill:#38b974;fill-opacity:1;fill-rule:nonzero;stroke:none"
                 id="path935" />
            </g>
            <g
               id="g937"
               transform="translate(450.5443,755.6266)">
              <path
                 inkscape:connector-curvature="0"
                 d="M 0,0 C 0,0.931 -0.533,1.555 -1.311,1.555 -2.08,1.555 -2.577,0.931 -2.577,0 c 0,-0.913 0.497,-1.537 1.266,-1.537 C -0.533,-1.537 0,-0.913 0,0 m 0.922,0 c 0,-1.447 -0.913,-2.342 -2.097,-2.342 -0.697,0 -1.167,0.316 -1.402,0.615 V -4.06 h -0.922 v 6.329 h 0.75 l 0.082,-0.605 h 0.063 C -2.378,1.971 -1.935,2.36 -1.175,2.36 0.036,2.36 0.922,1.428 0.922,0"
                 style="fill:#38b974;fill-opacity:1;fill-rule:nonzero;stroke:none"
                 id="path939" />
            </g>
            <path
               inkscape:connector-curvature="0"
               d="m 452.306,759.795 h 0.922 v -6.42 h -0.922 z"
               style="fill:#38b974;fill-opacity:1;fill-rule:nonzero;stroke:none"
               id="path941" />
            <g
               id="g943"
               transform="translate(457.0529,755.4457)">
              <path
                 inkscape:connector-curvature="0"
                 d="m 0,0 -1.076,-0.109 c -0.533,-0.045 -0.904,-0.28 -0.904,-0.714 0,-0.452 0.343,-0.615 0.75,-0.615 0.561,0 1.23,0.29 1.23,1.103 z M 1.384,-1.375 V -2.071 H 0.967 c -0.424,0 -0.723,0.136 -0.849,0.561 -0.308,-0.389 -0.805,-0.651 -1.483,-0.651 -0.877,0 -1.537,0.416 -1.537,1.302 0,0.859 0.651,1.302 1.519,1.383 L 0,0.66 v 0.226 c 0,0.579 -0.325,0.904 -0.886,0.904 -0.57,0 -0.841,-0.325 -0.922,-0.796 h -0.914 c 0.082,0.896 0.751,1.547 1.836,1.547 1.031,0 1.808,-0.561 1.808,-1.691 v -1.853 c 0,-0.254 0.118,-0.372 0.344,-0.372 z"
                 style="fill:#38b974;fill-opacity:1;fill-rule:nonzero;stroke:none"
                 id="path945" />
            </g>
            <g
               id="g947"
               transform="translate(459.2221,757.8959)">
              <path
                 inkscape:connector-curvature="0"
                 d="m 0,0 h 0.832 l 0.09,-0.542 h 0.064 c 0.253,0.343 0.623,0.633 1.32,0.633 1.003,0 1.69,-0.643 1.69,-1.809 V -4.521 H 3.074 v 2.604 c 0,0.832 -0.452,1.203 -1.03,1.203 -0.588,0 -1.122,-0.38 -1.122,-1.275 V -4.521 H 0 Z"
                 style="fill:#38b974;fill-opacity:1;fill-rule:nonzero;stroke:none"
                 id="path949" />
            </g>
            <g
               id="g951"
               transform="translate(465.9844,758.3934)">
              <path
                 inkscape:connector-curvature="0"
                 d="M 0,0 -0.723,1.311 H 0.072 L 0.723,0 Z m -0.922,-2.342 h 2.459 c -0.009,0.696 -0.479,1.185 -1.175,1.185 -0.715,0 -1.194,-0.525 -1.284,-1.185 m 3.336,-0.651 h -3.345 c 0.045,-0.805 0.533,-1.365 1.329,-1.365 0.569,0 0.986,0.235 1.13,0.696 h 0.886 c -0.19,-0.904 -0.949,-1.447 -2.016,-1.447 -1.302,0 -2.233,0.914 -2.233,2.306 0,1.474 0.967,2.396 2.197,2.396 1.103,0 2.07,-0.732 2.07,-2.287 0,-0.091 -0.009,-0.181 -0.018,-0.299"
                 style="fill:#38b974;fill-opacity:1;fill-rule:nonzero;stroke:none"
                 id="path953" />
            </g>
            <g
               id="g955"
               transform="translate(469.9076,754.4692)">
              <path
                 inkscape:connector-curvature="0"
                 d="m 0,0 v 2.685 h -0.977 v 0.742 h 0.317 c 0.534,0 0.732,0.19 0.732,0.678 V 4.656 H 0.913 V 3.427 H 2.062 V 2.685 H 0.913 V 0.126 c 0,-0.298 0.109,-0.569 0.588,-0.569 0.145,0 0.307,0.027 0.443,0.072 V -1.085 C 1.772,-1.13 1.537,-1.185 1.239,-1.185 0.181,-1.185 0,-0.516 0,0"
                 style="fill:#38b974;fill-opacity:1;fill-rule:nonzero;stroke:none"
                 id="path957" />
            </g>
            <g
               id="g959"
               transform="translate(473.3066,756.0515)">
              <path
                 inkscape:connector-curvature="0"
                 d="M 0,0 H 2.459 C 2.45,0.696 1.98,1.185 1.284,1.185 0.57,1.185 0.09,0.66 0,0 m 3.336,-0.651 h -3.345 c 0.045,-0.805 0.533,-1.365 1.329,-1.365 0.57,0 0.986,0.235 1.13,0.696 H 3.336 C 3.147,-2.224 2.387,-2.767 1.32,-2.767 c -1.302,0 -2.233,0.913 -2.233,2.306 0,1.473 0.967,2.396 2.197,2.396 1.103,0 2.071,-0.732 2.071,-2.288 0,-0.09 -0.009,-0.181 -0.019,-0.298"
                 style="fill:#38b974;fill-opacity:1;fill-rule:nonzero;stroke:none"
                 id="path961" />
            </g>
            <g
               id="g963"
               transform="translate(479.2548,754.7765)">
              <path
                 inkscape:connector-curvature="0"
                 d="m 0,0 h 0.886 c 0.054,-0.579 0.461,-0.786 0.959,-0.786 0.415,0 0.786,0.162 0.786,0.569 0,0.452 -0.416,0.624 -0.886,0.751 L 1.392,0.624 C 0.832,0.778 0.136,1.022 0.136,1.89 c 0,0.841 0.741,1.32 1.591,1.32 1.139,0 1.655,-0.651 1.7,-1.32 H 2.541 C 2.496,2.251 2.206,2.505 1.736,2.505 1.338,2.505 1.022,2.306 1.022,1.935 1.022,1.537 1.392,1.42 1.835,1.293 L 2.179,1.203 C 2.875,1.013 3.517,0.669 3.517,-0.19 3.517,-1.094 2.758,-1.492 1.853,-1.492 0.651,-1.492 0.045,-0.886 0,0"
                 style="fill:#38b974;fill-opacity:1;fill-rule:nonzero;stroke:none"
                 id="path965" />
            </g>
            <g
               id="g967"
               transform="translate(486.9847,755.6355)">
              <path
                 inkscape:connector-curvature="0"
                 d="M 0,0 C 0,0.85 -0.57,1.546 -1.41,1.546 -2.251,1.546 -2.803,0.85 -2.803,0 c 0,-0.841 0.552,-1.546 1.393,-1.546 C -0.57,-1.546 0,-0.841 0,0 m -3.716,0 c 0,1.375 0.976,2.351 2.306,2.351 1.329,0 2.323,-0.986 2.323,-2.351 0,-1.365 -0.994,-2.351 -2.323,-2.351 -1.321,0 -2.306,0.995 -2.306,2.351"
                 style="fill:#38b974;fill-opacity:1;fill-rule:nonzero;stroke:none"
                 id="path969" />
            </g>
            <g
               id="g971"
               transform="translate(492.6439,753.3751)">
              <path
                 inkscape:connector-curvature="0"
                 d="m 0,0 h -0.832 l -0.09,0.542 h -0.064 c -0.253,-0.343 -0.623,-0.632 -1.32,-0.632 -1.004,0 -1.69,0.642 -1.69,1.808 v 2.803 h 0.922 V 1.917 c 0,-0.832 0.452,-1.203 1.03,-1.203 0.588,0 1.122,0.38 1.122,1.275 V 4.521 H 0 Z"
                 style="fill:#38b974;fill-opacity:1;fill-rule:nonzero;stroke:none"
                 id="path973" />
            </g>
            <g
               id="g975"
               transform="translate(494.2704,754.4692)">
              <path
                 inkscape:connector-curvature="0"
                 d="m 0,0 v 2.685 h -0.977 v 0.742 h 0.317 c 0.533,0 0.732,0.19 0.732,0.678 V 4.656 H 0.913 V 3.427 H 2.062 V 2.685 H 0.913 V 0.126 c 0,-0.298 0.109,-0.569 0.588,-0.569 0.145,0 0.307,0.027 0.443,0.072 V -1.085 C 1.772,-1.13 1.537,-1.185 1.239,-1.185 0.181,-1.185 0,-0.516 0,0"
                 style="fill:#38b974;fill-opacity:1;fill-rule:nonzero;stroke:none"
                 id="path977" />
            </g>
            <g
               id="g979"
               transform="translate(497.7417,756.0515)">
              <path
                 inkscape:connector-curvature="0"
                 d="M 0,0 H 2.459 C 2.45,0.696 1.98,1.185 1.284,1.185 0.57,1.185 0.09,0.66 0,0 m 3.336,-0.651 h -3.345 c 0.045,-0.805 0.533,-1.365 1.329,-1.365 0.57,0 0.986,0.235 1.13,0.696 H 3.336 C 3.147,-2.224 2.387,-2.767 1.32,-2.767 c -1.302,0 -2.233,0.913 -2.233,2.306 0,1.473 0.967,2.396 2.197,2.396 1.103,0 2.071,-0.732 2.071,-2.288 0,-0.09 -0.009,-0.181 -0.019,-0.298"
                 style="fill:#38b974;fill-opacity:1;fill-rule:nonzero;stroke:none"
                 id="path981" />
            </g>
            <g
               id="g983"
               transform="translate(502.0267,757.8959)">
              <path
                 inkscape:connector-curvature="0"
                 d="m 0,0 h 0.832 l 0.09,-0.542 h 0.063 c 0.254,0.343 0.624,0.633 1.321,0.633 1.003,0 1.69,-0.643 1.69,-1.809 V -4.521 H 3.074 v 2.604 c 0,0.832 -0.452,1.203 -1.031,1.203 -0.587,0 -1.121,-0.38 -1.121,-1.275 V -4.521 H 0 Z"
                 style="fill:#38b974;fill-opacity:1;fill-rule:nonzero;stroke:none"
                 id="path985" />
            </g>
            <g
               id="g987"
               transform="translate(509.7656,755.4457)">
              <path
                 inkscape:connector-curvature="0"
                 d="m 0,0 -1.076,-0.109 c -0.533,-0.045 -0.904,-0.28 -0.904,-0.714 0,-0.452 0.343,-0.615 0.75,-0.615 0.561,0 1.23,0.29 1.23,1.103 z M 1.384,-1.375 V -2.071 H 0.967 c -0.425,0 -0.723,0.136 -0.849,0.561 -0.308,-0.389 -0.805,-0.651 -1.483,-0.651 -0.877,0 -1.538,0.416 -1.538,1.302 0,0.859 0.652,1.302 1.519,1.383 L 0,0.66 v 0.226 c 0,0.579 -0.325,0.904 -0.886,0.904 -0.57,0 -0.841,-0.325 -0.922,-0.796 h -0.914 c 0.082,0.896 0.751,1.547 1.836,1.547 1.031,0 1.808,-0.561 1.808,-1.691 v -1.853 c 0,-0.254 0.118,-0.372 0.344,-0.372 z"
                 style="fill:#38b974;fill-opacity:1;fill-rule:nonzero;stroke:none"
                 id="path989" />
            </g>
            <g
               id="g991"
               transform="translate(515.4247,755.6446)">
              <path
                 inkscape:connector-curvature="0"
                 d="M 0,0 C 0,0.913 -0.534,1.537 -1.311,1.537 -2.08,1.537 -2.577,0.913 -2.577,0 c 0,-0.931 0.497,-1.555 1.266,-1.555 C -0.534,-1.555 0,-0.931 0,0 m 0.922,0 c 0,-1.428 -0.886,-2.36 -2.098,-2.36 -0.759,0 -1.202,0.389 -1.428,0.696 h -0.063 l -0.082,-0.605 h -0.75 V 4.15 h 0.922 V 1.727 c 0.235,0.298 0.705,0.615 1.401,0.615 1.185,0 2.098,-0.895 2.098,-2.342"
                 style="fill:#38b974;fill-opacity:1;fill-rule:nonzero;stroke:none"
                 id="path993" />
            </g>
            <path
               inkscape:connector-curvature="0"
               d="m 517.268,759.795 h 0.922 v -6.42 h -0.922 z"
               style="fill:#38b974;fill-opacity:1;fill-rule:nonzero;stroke:none"
               id="path995" />
            <g
               id="g997"
               transform="translate(520.0255,756.0515)">
              <path
                 inkscape:connector-curvature="0"
                 d="M 0,0 H 2.459 C 2.45,0.696 1.98,1.185 1.284,1.185 0.57,1.185 0.09,0.66 0,0 m 3.336,-0.651 h -3.345 c 0.045,-0.805 0.533,-1.365 1.329,-1.365 0.57,0 0.986,0.235 1.13,0.696 H 3.336 C 3.147,-2.224 2.387,-2.767 1.32,-2.767 c -1.302,0 -2.233,0.913 -2.233,2.306 0,1.473 0.967,2.396 2.197,2.396 1.103,0 2.071,-0.732 2.071,-2.288 0,-0.09 -0.009,-0.181 -0.019,-0.298"
                 style="fill:#38b974;fill-opacity:1;fill-rule:nonzero;stroke:none"
                 id="path999" />
            </g>
          </g>
        </g>
      </g>
    </g>
  </g>
</svg>
